<svg xmlns="http://www.w3.org/2000/svg" version="1.1" xmlns:xlink="http://www.w3.org/1999/xlink" xmlns:svgjs="http://svgjs.dev/svgjs" viewBox="0 0 823.11669921875 546.392578125"><style>text.label { fill:gray; }</style><rect width="119.24609375" height="26.341796875" x="6.232421875" y="367.3671875" fill="white" stroke="black"></rect><text x="16.69140625" y="384.7451171875" font-family="Helvetica" font-size="12" svgjs:data="{&quot;leading&quot;:&quot;1.3&quot;}"><tspan dy="0" x="16.69140625" svgjs:data="{&quot;newLined&quot;:true}">Courses Extractor</tspan></text><rect width="111.7109375" height="26.341796875" x="0" y="443.708984375" fill="white" stroke="black"></rect><text x="10.71484375" y="461.0869140625" font-family="Helvetica" font-size="12" svgjs:data="{&quot;leading&quot;:&quot;1.3&quot;}"><tspan dy="0" x="10.71484375" svgjs:data="{&quot;newLined&quot;:true}">Links Repository</tspan></text><rect width="109.044921875" height="26.341796875" x="240.482421875" y="443.708984375" fill="white" stroke="black"></rect><text x="248.6416015625" y="461.0869140625" font-family="Helvetica" font-size="12" svgjs:data="{&quot;leading&quot;:&quot;1.3&quot;}"><tspan dy="0" x="248.6416015625" svgjs:data="{&quot;newLined&quot;:true}">URL Middleman</tspan></text><path d="M284.98306610220016 523.0165418593024C284.9510661022002 519.6822418593024 305.00836610220017 520.1544418593023 305.02706610220014 522.9137418593024C304.95096610220014 527.3506418593024 284.88386610220016 527.1570418593024 284.98306610220016 523.0165418593024ZM285.01246610220016 523.6626418593024C287.16316610220014 526.7229418593024 302.40716610220016 527.0349418593024 305.01246610220016 523.6626418593024V543.6626418593024C298.47926610220014 546.3310418593023 291.82596610220014 546.5984418593024 285.01246610220016 543.6626418593024Z " fill="white" stroke="black"></path><svg width="2" height="0" style="opacity: 0; position: absolute; left: -100%; top: -100%; overflow: hidden;" focusable="false" aria-hidden="true"><path d="M410.10426648107835 0L451.15746648107836 0.048C453.8199664810784 4.4997 454.01286648107833 9.129 451.15746648107836 13.8212C437.68226648107833 13.8357 426.13096648107836 13.584299999999999 410.81776648107837 13.782699999999998C404.73406648107834 13.779699999999998 405.52386648107836 -0.010000000000001563 410.1376664810783 0.030799999999999272C414.37176648107834 -0.06900000000000073 414.42976648107833 13.726999999999999 410.81536648107834 13.777 "></path></svg><text x="313.6068665794003" y="537.4287109375" font-family="Helvetica" font-size="11" svgjs:data="{&quot;leading&quot;:&quot;1.3&quot;}"><tspan dy="0" x="313.6068665794003" svgjs:data="{&quot;newLined&quot;:true}">DB</tspan></text><rect width="120.4765625" height="26.341796875" x="125.240234375" y="291.025390625" fill="white" stroke="black"></rect><text x="135.494140625" y="308.4033203125" font-family="Helvetica" font-size="12" svgjs:data="{&quot;leading&quot;:&quot;1.3&quot;}"><tspan dy="0" x="135.494140625" svgjs:data="{&quot;newLined&quot;:true}">Garbage Collector</tspan></text><path d="M185.12601562499998 380.4235859375V380.7185859375L185.384015625 380.86158593749997L188.795015625 382.74858593749997L189.279015625 381.87358593749997L186.12601562499998 380.1295859375V373.7155859375H185.12601562499998V380.4235859375ZM195.019015625 380.52258593749997C195.019015625 385.9965859375 190.967015625 390.0495859375 185.495015625 390.0495859375C180.02001562499998 390.0495859375 175.938015625 385.9945859375 175.938015625 380.52258593749997C175.938015625 375.0525859375 180.018015625 371.0265859375 185.49501562499998 371.0265859375C190.969015625 371.0265859375 195.01901562499998 375.0505859375 195.01901562499998 380.52258593749997Z " fill="white" stroke="black"></path><rect width="79.7890625" height="26.341796875" x="245.478515625" y="367.3671875" fill="white" stroke="black"></rect><text x="256.513671875" y="384.7451171875" font-family="Helvetica" font-size="12" svgjs:data="{&quot;leading&quot;:&quot;1.3&quot;}"><tspan dy="0" x="256.513671875" svgjs:data="{&quot;newLined&quot;:true}">golang-ical</tspan></text><rect width="128.544921875" height="26.341796875" x="365.57421875" y="138.341796875" fill="white" stroke="black"></rect><text x="376.4833984375" y="155.7197265625" font-family="Helvetica" font-size="12" svgjs:data="{&quot;leading&quot;:&quot;1.3&quot;}"><tspan dy="0" x="376.4833984375" svgjs:data="{&quot;newLined&quot;:true}">Notification System</tspan></text><rect width="98.97265625" height="26.341796875" x="380.3603515625" y="214.68359375" fill="white" stroke="black"></rect><text x="391.1982421875" y="232.0615234375" font-family="Helvetica" font-size="12" svgjs:data="{&quot;leading&quot;:&quot;1.3&quot;}"><tspan dy="0" x="391.1982421875" svgjs:data="{&quot;newLined&quot;:true}">User Interface</tspan></text><path d="M421.2605296875 309.2725890625C426.7340296875 311.0314890625 432.2075296875 311.0275890625 437.68102968750003 309.2612890625M421.96382968750004 298.7642890625C427.57882968750005 300.2222890625 433.0088296875 300.1322890625 438.11482968750005 298.8372890625M420.1897296875 304.1921890625C426.76682968750004 305.9040890625 433.1715296875 305.4904890625 439.50362968750005 304.1808890625M439.50362968750005 304.1808890625C439.50362968750005 309.7036890625 435.39542968750004 313.8119890625 429.87252968750005 313.8119890625C424.34972968750003 313.8119890625 420.2107296875 309.7037890625 420.2107296875 304.1808890625C420.2107296875 298.6580890625 424.34972968750003 294.5805890625 429.87252968750005 294.5805890625C435.39542968750004 294.5805890625 439.50362968750005 298.6580890625 439.50362968750005 304.1808890625Z " fill="white" stroke="black"></path><text x="441.59759140625005" y="308.4033203125" font-family="Helvetica" font-size="11" svgjs:data="{&quot;leading&quot;:&quot;1.3&quot;}"><tspan dy="0" x="441.59759140625005" svgjs:data="{&quot;newLined&quot;:true}">External</tspan></text><rect width="79.28515625" height="26.341796875" x="464.8466796875" y="367.3671875" fill="white" stroke="black"></rect><text x="473.9658203125" y="384.7451171875" font-family="Helvetica" font-size="12" svgjs:data="{&quot;leading&quot;:&quot;1.3&quot;}"><tspan dy="0" x="473.9658203125" svgjs:data="{&quot;newLined&quot;:true}">Classroom</tspan></text><path d="M555.4905101562499 461.9561828125C560.9640101562499 463.7150828125 566.4375101562499 463.7111828125 571.9110101562499 461.9448828125M556.1938101562499 451.4478828125C561.8088101562499 452.9058828125 567.2388101562499 452.8158828125 572.3448101562499 451.5208828125M554.41971015625 456.8757828125C560.9968101562499 458.5876828125 567.40151015625 458.1740828125 573.7336101562499 456.8644828125M573.7336101562499 456.8644828125C573.7336101562499 462.3872828125 569.6254101562499 466.4955828125 564.1025101562499 466.4955828125C558.5797101562499 466.4955828125 554.4407101562499 462.3873828125 554.4407101562499 456.8644828125C554.4407101562499 451.3416828125 558.5797101562499 447.2641828125 564.1025101562499 447.2641828125C569.6254101562499 447.2641828125 573.7336101562499 451.3416828125 573.7336101562499 456.8644828125Z " fill="white" stroke="black"></path><text x="576.296321875" y="461.0869140625" font-family="Helvetica" font-size="11" svgjs:data="{&quot;leading&quot;:&quot;1.3&quot;}"><tspan dy="0" x="576.296321875" svgjs:data="{&quot;newLined&quot;:true}">Internal</tspan></text><rect width="76.40234375" height="26.341796875" x="525.87548828125" y="520.05078125" fill="white" stroke="black"></rect><text x="534.47509765625" y="537.4287109375" font-family="Helvetica" font-size="12" svgjs:data="{&quot;leading&quot;:&quot;1.3&quot;}"><tspan dy="0" x="534.47509765625" svgjs:data="{&quot;newLined&quot;:true}">Chatroom</tspan></text><rect width="141.62890625" height="26.341796875" x="681.48779296875" y="520.05078125" fill="white" stroke="black"></rect><text x="690.21630859375" y="537.4287109375" font-family="Helvetica" font-size="12" svgjs:data="{&quot;leading&quot;:&quot;1.3&quot;}"><tspan dy="0" x="690.21630859375" svgjs:data="{&quot;newLined&quot;:true}">Document Repository</tspan></text><rect width="120.494140625" height="26.341796875" x="355.38134765625" y="520.05078125" fill="white" stroke="black"></rect><text x="364.63232421875" y="537.4287109375" font-family="Helvetica" font-size="12" svgjs:data="{&quot;leading&quot;:&quot;1.3&quot;}"><tspan dy="0" x="364.63232421875" svgjs:data="{&quot;newLined&quot;:true}">Github Classroom</tspan></text><rect width="91.033203125" height="26.341796875" x="696.78564453125" y="443.708984375" fill="white" stroke="black"></rect><text x="705.94677734375" y="461.0869140625" font-family="Helvetica" font-size="12" svgjs:data="{&quot;leading&quot;:&quot;1.3&quot;}"><tspan dy="0" x="705.94677734375" svgjs:data="{&quot;newLined&quot;:true}">API Manager</tspan></text><rect width="79.373046875" height="26.341796875" x="497.06884765625" y="0" fill="white" stroke="black"></rect><text x="507.17333984375" y="17.3779296875" font-family="Helvetica" font-size="12" svgjs:data="{&quot;leading&quot;:&quot;1.3&quot;}"><tspan dy="0" x="507.17333984375" svgjs:data="{&quot;newLined&quot;:true}">Github API</tspan></text><path d="M410.10426648107835 75.43089267341618L451.15746648107836 75.47889267341618C453.8199664810784 79.93059267341619 454.01286648107833 84.55989267341619 451.15746648107836 89.25209267341619C437.68226648107833 89.26659267341618 426.13096648107836 89.01519267341618 410.81776648107837 89.21359267341617C404.73406648107834 89.21059267341619 405.52386648107836 75.42089267341618 410.1376664810783 75.46169267341618C414.37176648107834 75.36189267341618 414.42976648107833 89.15789267341619 410.81536648107834 89.20789267341618 " fill="white" stroke="black"></path><text x="465.989533721486" y="86.548828125" font-family="Helvetica" font-size="11" svgjs:data="{&quot;leading&quot;:&quot;1.3&quot;}"><tspan dy="0" x="465.989533721486" svgjs:data="{&quot;newLined&quot;:true}">WebHooks</tspan></text><rect width="72.79296875" height="26.341796875" x="594.1318359375" y="367.3671875" fill="white" stroke="black"></rect><text x="605.3330078125" y="384.7451171875" font-family="Helvetica" font-size="12" svgjs:data="{&quot;leading&quot;:&quot;1.3&quot;}"><tspan dy="0" x="605.3330078125" svgjs:data="{&quot;newLined&quot;:true}">iCorsi API</tspan></text><g><polyline points="60.40496090851818,393.708984375 53.85546875,418.708984375 53.85546875,443.708984375" stroke-width="0.25" stroke="black" fill="none" marker-end="url(#SvgjsMarker1000)"></polyline><polyline points="57.85546875,443.708984375 57.85546875,418.708984375 64.40496090851818,393.708984375" stroke-width="0.25" stroke="black" fill="none" stroke-dasharray="2" marker-end="url(#SvgjsMarker1001)"></polyline></g><defs><marker markerWidth="40" markerHeight="30" refX="20" refY="15" viewBox="0 0 40 30" orient="auto" id="SvgjsMarker1000"><path d="m 0 0 l 20 15 l -20 15 a 7.5 1 90 0 0 0 -30 z" fill="black" stroke-width="0.1" stroke="black"></path></marker><marker markerWidth="40" markerHeight="30" refX="20" refY="15" viewBox="0 0 40 30" orient="auto" id="SvgjsMarker1001"><path d="m 0 0 l 20 15 l -20 15 a 7.5 1 90 0 0 0 -30 z" fill="black" stroke-width="0.1" stroke="black"></path></marker><marker markerWidth="40" markerHeight="30" refX="20" refY="15" viewBox="0 0 40 30" orient="auto" id="SvgjsMarker1002"><path d="m 0 0 l 20 15 l -20 15 a 7.5 1 90 0 0 0 -30 z" fill="black" stroke-width="0.1" stroke="black"></path></marker><marker markerWidth="40" markerHeight="30" refX="20" refY="15" viewBox="0 0 40 30" orient="auto" id="SvgjsMarker1003"><path d="m 0 0 l 20 15 l -20 15 a 7.5 1 90 0 0 0 -30 z" fill="black" stroke-width="0.1" stroke="black"></path></marker><marker markerWidth="40" markerHeight="30" refX="20" refY="15" viewBox="0 0 40 30" orient="auto" id="SvgjsMarker1004"><path d="m 0 0 l 20 15 l -20 15 a 7.5 1 90 0 0 0 -30 z" fill="black" stroke-width="0.1" stroke="black"></path></marker><marker markerWidth="40" markerHeight="30" refX="20" refY="15" viewBox="0 0 40 30" orient="auto" id="SvgjsMarker1005"><path d="m 0 0 l 20 15 l -20 15 a 7.5 1 90 0 0 0 -30 z" fill="black" stroke-width="0.1" stroke="black"></path></marker><marker markerWidth="40" markerHeight="30" refX="20" refY="15" viewBox="0 0 40 30" orient="auto" id="SvgjsMarker1006"><path d="m 0 0 l 20 15 l -20 15 a 7.5 1 90 0 0 0 -30 z" fill="black" stroke-width="0.1" stroke="black"></path></marker><marker markerWidth="40" markerHeight="30" refX="20" refY="15" viewBox="0 0 40 30" orient="auto" id="SvgjsMarker1007"><path d="m 0 0 l 20 15 l -20 15 a 7.5 1 90 0 0 0 -30 z" fill="black" stroke-width="0.1" stroke="black"></path></marker><marker markerWidth="40" markerHeight="30" refX="20" refY="15" viewBox="0 0 40 30" orient="auto" id="SvgjsMarker1008"><path d="m 0 0 l 20 15 l -20 15 a 7.5 1 90 0 0 0 -30 z" fill="black" stroke-width="0.1" stroke="black"></path></marker><marker markerWidth="100" markerHeight="40" refX="50" refY="20" viewBox="0 0 100 40" orient="auto" id="SvgjsMarker1009"><path d="m 0 0 l 20 20 l -20 20 a 10 1 90 0 0 0 -40 z m 19.96 4.4 l 15.5 15.63 l -15.43 15.23 a 10 1 90 0 0 -0.07 -30.79 z m 16.12 5.51 l 10.34 10.12 l -10.27 10.2 a 10 1 90 0 0 -0.07 -20.32 z" fill="black" stroke-width="0.1" stroke="black"></path></marker><marker markerWidth="40" markerHeight="30" refX="20" refY="15" viewBox="0 0 40 30" orient="auto" id="SvgjsMarker1010"><path d="m 0 0 l 20 15 l -20 15 a 7.5 1 90 0 0 0 -30 z" fill="black" stroke-width="0.1" stroke="black"></path></marker><marker markerWidth="40" markerHeight="30" refX="20" refY="15" viewBox="0 0 40 30" orient="auto" id="SvgjsMarker1011"><path d="m 0 0 l 20 15 l -20 15 a 7.5 1 90 0 0 0 -30 z" fill="black" stroke-width="0.1" stroke="black"></path></marker><marker markerWidth="40" markerHeight="30" refX="20" refY="15" viewBox="0 0 40 30" orient="auto" id="SvgjsMarker1012"><path d="m 0 0 l 20 15 l -20 15 a 7.5 1 90 0 0 0 -30 z" fill="black" stroke-width="0.1" stroke="black"></path></marker><marker markerWidth="40" markerHeight="30" refX="20" refY="15" viewBox="0 0 40 30" orient="auto" id="SvgjsMarker1013"><path d="m 0 0 l 20 15 l -20 15 a 7.5 1 90 0 0 0 -30 z" fill="black" stroke-width="0.1" stroke="black"></path></marker><marker markerWidth="40" markerHeight="30" refX="20" refY="15" viewBox="0 0 40 30" orient="auto" id="SvgjsMarker1014"><path d="m 0 0 l 20 15 l -20 15 a 7.5 1 90 0 0 0 -30 z" fill="black" stroke-width="0.1" stroke="black"></path></marker><marker markerWidth="40" markerHeight="30" refX="20" refY="15" viewBox="0 0 40 30" orient="auto" id="SvgjsMarker1015"><path d="m 0 0 l 20 15 l -20 15 a 7.5 1 90 0 0 0 -30 z" fill="black" stroke-width="0.1" stroke="black"></path></marker><marker markerWidth="40" markerHeight="30" refX="20" refY="15" viewBox="0 0 40 30" orient="auto" id="SvgjsMarker1016"><path d="m 0 0 l 20 15 l -20 15 a 7.5 1 90 0 0 0 -30 z" fill="black" stroke-width="0.1" stroke="black"></path></marker><marker markerWidth="40" markerHeight="30" refX="20" refY="15" viewBox="0 0 40 30" orient="auto" id="SvgjsMarker1017"><path d="m 0 0 l 20 15 l -20 15 a 7.5 1 90 0 0 0 -30 z" fill="black" stroke-width="0.1" stroke="black"></path></marker><marker markerWidth="40" markerHeight="30" refX="20" refY="15" viewBox="0 0 40 30" orient="auto" id="SvgjsMarker1018"><path d="m 0 0 l 20 15 l -20 15 a 7.5 1 90 0 0 0 -30 z" fill="black" stroke-width="0.1" stroke="black"></path></marker><marker markerWidth="40" markerHeight="30" refX="20" refY="15" viewBox="0 0 40 30" orient="auto" id="SvgjsMarker1019"><path d="m 0 0 l 20 15 l -20 15 a 7.5 1 90 0 0 0 -30 z" fill="black" stroke-width="0.1" stroke="black"></path></marker><marker markerWidth="40" markerHeight="30" refX="20" refY="15" viewBox="0 0 40 30" orient="auto" id="SvgjsMarker1020"><path d="m 0 0 l 20 15 l -20 15 a 7.5 1 90 0 0 0 -30 z" fill="black" stroke-width="0.1" stroke="black"></path></marker><marker markerWidth="40" markerHeight="30" refX="20" refY="15" viewBox="0 0 40 30" orient="auto" id="SvgjsMarker1021"><path d="m 0 0 l 20 15 l -20 15 a 7.5 1 90 0 0 0 -30 z" fill="black" stroke-width="0.1" stroke="black"></path></marker><marker markerWidth="40" markerHeight="30" refX="20" refY="15" viewBox="0 0 40 30" orient="auto" id="SvgjsMarker1022"><path d="m 0 0 l 20 15 l -20 15 a 7.5 1 90 0 0 0 -30 z" fill="black" stroke-width="0.1" stroke="black"></path></marker><marker markerWidth="40" markerHeight="30" refX="20" refY="15" viewBox="0 0 40 30" orient="auto" id="SvgjsMarker1023"><path d="m 0 0 l 20 15 l -20 15 a 7.5 1 90 0 0 0 -30 z" fill="black" stroke-width="0.1" stroke="black"></path></marker><marker markerWidth="40" markerHeight="30" refX="20" refY="15" viewBox="0 0 40 30" orient="auto" id="SvgjsMarker1024"><path d="m 0 0 l 20 15 l -20 15 a 7.5 1 90 0 0 0 -30 z" fill="black" stroke-width="0.1" stroke="black"></path></marker><marker markerWidth="40" markerHeight="30" refX="20" refY="15" viewBox="0 0 40 30" orient="auto" id="SvgjsMarker1025"><path d="m 0 0 l 20 15 l -20 15 a 7.5 1 90 0 0 0 -30 z" fill="black" stroke-width="0.1" stroke="black"></path></marker><marker markerWidth="40" markerHeight="30" refX="20" refY="15" viewBox="0 0 40 30" orient="auto" id="SvgjsMarker1026"><path d="m 0 0 l 20 15 l -20 15 a 7.5 1 90 0 0 0 -30 z" fill="black" stroke-width="0.1" stroke="black"></path></marker><marker markerWidth="40" markerHeight="30" refX="20" refY="15" viewBox="0 0 40 30" orient="auto" id="SvgjsMarker1027"><path d="m 0 0 l 20 15 l -20 15 a 7.5 1 90 0 0 0 -30 z" fill="black" stroke-width="0.1" stroke="black"></path></marker><marker markerWidth="40" markerHeight="30" refX="20" refY="15" viewBox="0 0 40 30" orient="auto" id="SvgjsMarker1028"><path d="m 0 0 l 20 15 l -20 15 a 7.5 1 90 0 0 0 -30 z" fill="black" stroke-width="0.1" stroke="black"></path></marker></defs><g><polyline points="81.04297397172493,393.708984375 113.6669921875,418.708984375 238.482421875,445.27513318733764" stroke-width="0.25" stroke="black" fill="none" marker-end="url(#SvgjsMarker1002)"></polyline><polyline points="242.482421875,445.27513318733764 117.6669921875,418.708984375 85.04297397172493,393.708984375" stroke-width="0.25" stroke="black" fill="none" stroke-dasharray="2" marker-end="url(#SvgjsMarker1003)"></polyline></g><g><polyline points="295.0048828125,470.05078125 295.0048828125,495.05078125 295.0048828125,523.2216796875" stroke-width="0.25" stroke="black" fill="none" marker-end="url(#SvgjsMarker1004)"></polyline></g><g><polyline points="185.478515625,317.3671875 185.478515625,342.3671875 185.478515625,370.5380859375" stroke-width="0.25" stroke="black" fill="none" marker-end="url(#SvgjsMarker1005)"></polyline></g><g><polyline points="185.478515625,390.5380859375 185.478515625,418.708984375 257.2127239295514,443.708984375" stroke-width="0.25" stroke="black" fill="none" marker-end="url(#SvgjsMarker1006)"></polyline></g><g><polyline points="283.373046875,393.708984375 283.373046875,418.708984375 289.681410269479,443.708984375" stroke-width="0.25" stroke="black" fill="none" marker-end="url(#SvgjsMarker1007)"></polyline><polyline points="293.681410269479,443.708984375 287.373046875,418.708984375 287.373046875,393.708984375" stroke-width="0.25" stroke="black" fill="none" stroke-dasharray="2" marker-end="url(#SvgjsMarker1008)"></polyline></g><g><polyline points="429.8466796875,164.68359375 429.8466796875,189.68359375 429.8466796875,214.68359375" stroke-width="0.25" stroke="black" fill="none" marker-end="url(#SvgjsMarker1009)"></polyline></g><g><polyline points="429.8466796875,241.025390625 429.8466796875,266.025390625 429.8466796875,294.1962890625" stroke-width="0.25" stroke="black" fill="none" marker-end="url(#SvgjsMarker1010)"></polyline></g><g><polyline points="419.8466796875,309.6822607954366 360.267578125,342.3671875 360.267578125,380.5380859375 360.267578125,418.708984375 317.523827005702,443.708984375" stroke-width="0.25" stroke="black" fill="none" marker-end="url(#SvgjsMarker1011)"></polyline></g><g><polyline points="439.8466796875,309.31011275352756 504.4892578125,342.3671875 504.4892578125,367.3671875" stroke-width="0.25" stroke="black" fill="none" marker-end="url(#SvgjsMarker1012)"></polyline></g><g><polyline points="525.0499377165642,393.708984375 564.07666015625,418.708984375 564.07666015625,446.8798828125" stroke-width="0.25" stroke="black" fill="none" marker-end="url(#SvgjsMarker1013)"></polyline></g><g><polyline points="564.07666015625,466.8798828125 564.07666015625,495.05078125 564.07666015625,520.05078125" stroke-width="0.25" stroke="black" fill="none" marker-end="url(#SvgjsMarker1014)"></polyline></g><g><polyline points="574.07666015625,460.7465521171584 662.79443359375,495.05078125 721.4175052032365,520.05078125" stroke-width="0.25" stroke="black" fill="none" marker-end="url(#SvgjsMarker1015)"></polyline></g><g><polyline points="554.07666015625,458.8021548970884 365.5048828125,495.05078125 398.333252858807,520.05078125" stroke-width="0.25" stroke="black" fill="none" marker-end="url(#SvgjsMarker1016)"></polyline></g><g><polyline points="743.7527539352318,470.05078125 750.30224609375,495.05078125 750.30224609375,520.05078125" stroke-width="0.25" stroke="black" fill="none" marker-end="url(#SvgjsMarker1017)"></polyline><polyline points="754.30224609375,520.05078125 754.30224609375,495.05078125 747.7527539352318,470.05078125" stroke-width="0.25" stroke="black" fill="none" stroke-dasharray="2" marker-end="url(#SvgjsMarker1018)"></polyline></g><g><polyline points="694.78564453125,463.49985429242804 477.8525390625,495.05078125 435.7890013133763,520.05078125" stroke-width="0.25" stroke="black" fill="none" marker-end="url(#SvgjsMarker1019)"></polyline><polyline points="439.7890013133763,520.05078125 481.8525390625,495.05078125 698.78564453125,463.49985429242804" stroke-width="0.25" stroke="black" fill="none" stroke-dasharray="2" marker-end="url(#SvgjsMarker1020)"></polyline></g><g><polyline points="574.44189453125,21.051428309537933 726.98486328125,51.341796875 726.98486328125,82.341796875 726.98486328125,113.341796875 726.98486328125,151.5126953125 726.98486328125,189.68359375 726.98486328125,227.8544921875 726.98486328125,266.025390625 726.98486328125,304.1962890625 726.98486328125,342.3671875 726.98486328125,380.5380859375 726.98486328125,418.708984375 735.7070727114954,443.708984375" stroke-width="0.25" stroke="black" fill="none" marker-end="url(#SvgjsMarker1021)"></polyline><polyline points="739.7070727114954,443.708984375 730.98486328125,418.708984375 730.98486328125,380.5380859375 730.98486328125,342.3671875 730.98486328125,304.1962890625 730.98486328125,266.025390625 730.98486328125,227.8544921875 730.98486328125,189.68359375 730.98486328125,151.5126953125 730.98486328125,113.341796875 730.98486328125,82.341796875 730.98486328125,51.341796875 578.44189453125,21.051428309537933" stroke-width="0.25" stroke="black" fill="none" stroke-dasharray="2" marker-end="url(#SvgjsMarker1022)"></polyline></g><g><polyline points="499.8664432917674,26.341796875 429.8466796875,51.341796875 429.8466796875,76.341796875" stroke-width="0.25" stroke="black" fill="none" marker-end="url(#SvgjsMarker1023)"></polyline></g><g><polyline points="429.8466796875,88.341796875 429.8466796875,113.341796875 429.8466796875,138.341796875" stroke-width="0.25" stroke="black" fill="none" marker-end="url(#SvgjsMarker1024)"></polyline></g><g><polyline points="664.9248046875,391.9468214253896 750.30224609375,418.708984375 743.7527539352318,443.708984375" stroke-width="0.25" stroke="black" fill="none" marker-end="url(#SvgjsMarker1025)"></polyline><polyline points="747.7527539352318,443.708984375 754.30224609375,418.708984375 668.9248046875,391.9468214253896" stroke-width="0.25" stroke="black" fill="none" stroke-dasharray="2" marker-end="url(#SvgjsMarker1026)"></polyline></g><g><polyline points="592.1318359375,387.39665974791984 425.96630859375,418.708984375 338.8833270397806,443.708984375" stroke-width="0.25" stroke="black" fill="none" marker-end="url(#SvgjsMarker1027)"></polyline><polyline points="342.8833270397806,443.708984375 429.96630859375,418.708984375 596.1318359375,387.39665974791984" stroke-width="0.25" stroke="black" fill="none" stroke-dasharray="2" marker-end="url(#SvgjsMarker1028)"></polyline></g></svg>