<svg xmlns="http://www.w3.org/2000/svg" version="1.1" xmlns:xlink="http://www.w3.org/1999/xlink" xmlns:svgjs="http://svgjs.dev/svgjs" viewBox="0 0 1670 580"><rect width="150" height="40" x="590" y="0" fill="white" stroke="black"></rect><text x="616.94140625" y="26.20703125" svgjs:data="{&quot;leading&quot;:&quot;1.3&quot;}"><tspan dy="0" x="616.94140625" svgjs:data="{&quot;newLined&quot;:true}">USI Calendar</tspan></text><rect width="220" height="40" x="27.5" y="90" fill="white" stroke="black"></rect><text x="59.87109375" y="116.20703125" svgjs:data="{&quot;leading&quot;:&quot;1.3&quot;}"><tspan dy="0" x="59.87109375" svgjs:data="{&quot;newLined&quot;:true}">Calendar Generation</tspan></text><rect width="200" height="40" x="0" y="180" fill="white" stroke="black"></rect><text x="33.95703125" y="206.20703125" svgjs:data="{&quot;leading&quot;:&quot;1.3&quot;}"><tspan dy="0" x="33.95703125" svgjs:data="{&quot;newLined&quot;:true}">Courses Selection</tspan></text><rect width="190" height="40" x="5" y="270" fill="white" stroke="black"></rect><text x="29.4921875" y="296.20703125" svgjs:data="{&quot;leading&quot;:&quot;1.3&quot;}"><tspan dy="0" x="29.4921875" svgjs:data="{&quot;newLined&quot;:true}">From one Program</tspan></text><rect width="190" height="40" x="245" y="270" fill="white" stroke="black"></rect><text x="270.33203125" y="296.20703125" svgjs:data="{&quot;leading&quot;:&quot;1.3&quot;}"><tspan dy="0" x="270.33203125" svgjs:data="{&quot;newLined&quot;:true}">From any Program</tspan></text><rect width="190" height="40" x="427.5" y="180" fill="white" stroke="black"></rect><text x="462.48046875" y="206.20703125" svgjs:data="{&quot;leading&quot;:&quot;1.3&quot;}"><tspan dy="0" x="462.48046875" svgjs:data="{&quot;newLined&quot;:true}">iCorsi Deadlines</tspan></text><rect width="210" height="40" x="495" y="270" fill="white" stroke="black"></rect><text x="535.7734375" y="296.20703125" svgjs:data="{&quot;leading&quot;:&quot;1.3&quot;}"><tspan dy="0" x="535.7734375" svgjs:data="{&quot;newLined&quot;:true}">iCorsi Integration</tspan></text><rect width="120" height="40" x="475" y="360" fill="white" stroke="black"></rect><text x="500.08984375" y="386.20703125" svgjs:data="{&quot;leading&quot;:&quot;1.3&quot;}"><tspan dy="0" x="500.08984375" svgjs:data="{&quot;newLined&quot;:true}">USI Email</tspan></text><rect width="200" height="40" x="435" y="450" fill="white" stroke="black"></rect><text x="469.2734375" y="476.20703125" svgjs:data="{&quot;leading&quot;:&quot;1.3&quot;}"><tspan dy="0" x="469.2734375" svgjs:data="{&quot;newLined&quot;:true}">iCorsi Auth Token</tspan></text><rect width="170" height="40" x="772.5" y="360" fill="white" stroke="black"></rect><text x="807.80859375" y="386.20703125" svgjs:data="{&quot;leading&quot;:&quot;1.3&quot;}"><tspan dy="0" x="807.80859375" svgjs:data="{&quot;newLined&quot;:true}">iCorsi User Id</tspan></text><rect width="200" height="40" x="757.5" y="450" fill="white" stroke="black"></rect><text x="791.7734375" y="476.20703125" svgjs:data="{&quot;leading&quot;:&quot;1.3&quot;}"><tspan dy="0" x="791.7734375" svgjs:data="{&quot;newLined&quot;:true}">iCorsi Auth Token</tspan></text><rect width="210" height="40" x="1460" y="270" fill="white" stroke="black"></rect><text x="1496.38671875" y="296.20703125" svgjs:data="{&quot;leading&quot;:&quot;1.3&quot;}"><tspan dy="0" x="1496.38671875" svgjs:data="{&quot;newLined&quot;:true}">Github Integration</tspan></text><rect width="140" height="40" x="1150" y="360" fill="white" stroke="black"></rect><text x="1174.8203125" y="386.20703125" svgjs:data="{&quot;leading&quot;:&quot;1.3&quot;}"><tspan dy="0" x="1174.8203125" svgjs:data="{&quot;newLined&quot;:true}">Github Auth</tspan></text><rect width="180" height="40" x="1340" y="360" fill="white" stroke="black"></rect><text x="1363.140625" y="386.20703125" svgjs:data="{&quot;leading&quot;:&quot;1.3&quot;}"><tspan dy="0" x="1363.140625" svgjs:data="{&quot;newLined&quot;:true}">Github Webhooks</tspan></text><rect width="140" height="40" x="1035" y="450" fill="white" stroke="black"></rect><text x="1054.859375" y="476.20703125" svgjs:data="{&quot;leading&quot;:&quot;1.3&quot;}"><tspan dy="0" x="1054.859375" svgjs:data="{&quot;newLined&quot;:true}">Commit Push</tspan></text><rect width="270" height="40" x="970" y="540" fill="white" stroke="black"></rect><text x="1009.015625" y="566.20703125" svgjs:data="{&quot;leading&quot;:&quot;1.3&quot;}"><tspan dy="0" x="1009.015625" svgjs:data="{&quot;newLined&quot;:true}">Filter on commit message</tspan></text><rect width="160" height="40" x="1290" y="450" fill="white" stroke="black"></rect><text x="1316.9140625" y="476.20703125" svgjs:data="{&quot;leading&quot;:&quot;1.3&quot;}"><tspan dy="0" x="1316.9140625" svgjs:data="{&quot;newLined&quot;:true}">Repo Creation</tspan></text><rect width="170" height="40" x="1500" y="450" fill="white" stroke="black"></rect><text x="1530.2578125" y="476.20703125" svgjs:data="{&quot;leading&quot;:&quot;1.3&quot;}"><tspan dy="0" x="1530.2578125" svgjs:data="{&quot;newLined&quot;:true}">Issue Assigned</tspan></text><rect width="250" height="40" x="755" y="90" fill="white" stroke="black"></rect><text x="791.7890625" y="116.20703125" svgjs:data="{&quot;leading&quot;:&quot;1.3&quot;}"><tspan dy="0" x="791.7890625" svgjs:data="{&quot;newLined&quot;:true}">Classroom Subscription</tspan></text><rect width="110" height="40" x="725" y="180" fill="white" stroke="black"></rect><text x="742.3984375" y="206.20703125" svgjs:data="{&quot;leading&quot;:&quot;1.3&quot;}"><tspan dy="0" x="742.3984375" svgjs:data="{&quot;newLined&quot;:true}">Chatroom</tspan></text><rect width="190" height="40" x="885" y="180" fill="white" stroke="black"></rect><text x="908.69921875" y="206.20703125" svgjs:data="{&quot;leading&quot;:&quot;1.3&quot;}"><tspan dy="0" x="908.69921875" svgjs:data="{&quot;newLined&quot;:true}">Course Documents</tspan></text><rect width="190" height="40" x="1125" y="180" fill="white" stroke="black"></rect><text x="1153.00390625" y="206.20703125" svgjs:data="{&quot;leading&quot;:&quot;1.3&quot;}"><tspan dy="0" x="1153.00390625" svgjs:data="{&quot;newLined&quot;:true}">Github Classroom</tspan></text><rect width="150" height="40" x="1040" y="270" fill="white" stroke="black"></rect><text x="1068.7421875" y="296.20703125" svgjs:data="{&quot;leading&quot;:&quot;1.3&quot;}"><tspan dy="0" x="1068.7421875" svgjs:data="{&quot;newLined&quot;:true}">Repositories</tspan></text><rect width="160" height="40" x="1250" y="270" fill="white" stroke="black"></rect><text x="1282.890625" y="296.20703125" svgjs:data="{&quot;leading&quot;:&quot;1.3&quot;}"><tspan dy="0" x="1282.890625" svgjs:data="{&quot;newLined&quot;:true}">Notifications</tspan></text><polygon points="200,230 150,221 100,230" fill="white" stroke="black"></polygon><polygon points="705,320 638.0555555555555,311 571.1111111111111,320" fill="white" stroke="black"></polygon><polygon points="1498.888888888889,410 1419.4444444444443,401 1340,410" fill="black" stroke="black"></polygon><polygon points="1268.888888888889,230 1221.111111111111,221 1173.3333333333333,230" fill="black" stroke="black"></polygon><polyline points="100,230 100,245 100,270" stroke="black" fill="none"></polyline><polyline points="200,230 340,245 340,270" stroke="black" fill="none"></polyline><polyline points="120.83333333333333,130 100,155 100,180" stroke="black" fill="none" marker-end="url(#SvgjsMarker1000)"></polyline><defs><marker markerWidth="14" markerHeight="14" refX="7" refY="7" viewBox="0 0 14 14" orient="auto" id="SvgjsMarker1000"><circle r="5" cx="7" cy="7" fill="black" stroke-width="2" stroke="black"></circle></marker><marker markerWidth="14" markerHeight="14" refX="7" refY="7" viewBox="0 0 14 14" orient="auto" id="SvgjsMarker1001"><circle r="5" cx="7" cy="7" fill="white" stroke-width="2" stroke="black"></circle></marker><marker markerWidth="14" markerHeight="14" refX="7" refY="7" viewBox="0 0 14 14" orient="auto" id="SvgjsMarker1002"><circle r="5" cx="7" cy="7" fill="black" stroke-width="2" stroke="black"></circle></marker><marker markerWidth="14" markerHeight="14" refX="7" refY="7" viewBox="0 0 14 14" orient="auto" id="SvgjsMarker1003"><circle r="5" cx="7" cy="7" fill="black" stroke-width="2" stroke="black"></circle></marker><marker markerWidth="14" markerHeight="14" refX="7" refY="7" viewBox="0 0 14 14" orient="auto" id="SvgjsMarker1004"><circle r="5" cx="7" cy="7" fill="black" stroke-width="2" stroke="black"></circle></marker><marker markerWidth="14" markerHeight="14" refX="7" refY="7" viewBox="0 0 14 14" orient="auto" id="SvgjsMarker1005"><circle r="5" cx="7" cy="7" fill="white" stroke-width="2" stroke="black"></circle></marker><marker markerWidth="14" markerHeight="14" refX="7" refY="7" viewBox="0 0 14 14" orient="auto" id="SvgjsMarker1006"><circle r="5" cx="7" cy="7" fill="black" stroke-width="2" stroke="black"></circle></marker><marker markerWidth="14" markerHeight="14" refX="7" refY="7" viewBox="0 0 14 14" orient="auto" id="SvgjsMarker1007"><circle r="5" cx="7" cy="7" fill="white" stroke-width="2" stroke="black"></circle></marker><marker markerWidth="14" markerHeight="14" refX="7" refY="7" viewBox="0 0 14 14" orient="auto" id="SvgjsMarker1008"><circle r="5" cx="7" cy="7" fill="black" stroke-width="2" stroke="black"></circle></marker><marker markerWidth="14" markerHeight="14" refX="7" refY="7" viewBox="0 0 14 14" orient="auto" id="SvgjsMarker1009"><circle r="5" cx="7" cy="7" fill="white" stroke-width="2" stroke="black"></circle></marker><marker markerWidth="14" markerHeight="14" refX="7" refY="7" viewBox="0 0 14 14" orient="auto" id="SvgjsMarker1010"><circle r="5" cx="7" cy="7" fill="black" stroke-width="2" stroke="black"></circle></marker><marker markerWidth="14" markerHeight="14" refX="7" refY="7" viewBox="0 0 14 14" orient="auto" id="SvgjsMarker1011"><circle r="5" cx="7" cy="7" fill="black" stroke-width="2" stroke="black"></circle></marker><marker markerWidth="14" markerHeight="14" refX="7" refY="7" viewBox="0 0 14 14" orient="auto" id="SvgjsMarker1012"><circle r="5" cx="7" cy="7" fill="white" stroke-width="2" stroke="black"></circle></marker><marker markerWidth="14" markerHeight="14" refX="7" refY="7" viewBox="0 0 14 14" orient="auto" id="SvgjsMarker1013"><circle r="5" cx="7" cy="7" fill="white" stroke-width="2" stroke="black"></circle></marker><marker markerWidth="14" markerHeight="14" refX="7" refY="7" viewBox="0 0 14 14" orient="auto" id="SvgjsMarker1014"><polygon points="0,14 7,7 0,0 2,7" fill="black" stroke-width="1" stroke="black"></polygon></marker><marker markerWidth="14" markerHeight="14" refX="7" refY="7" viewBox="0 0 14 14" orient="auto" id="SvgjsMarker1015"><polygon points="0,14 7,7 0,0 2,7" fill="black" stroke-width="1" stroke="black"></polygon></marker><marker markerWidth="14" markerHeight="14" refX="7" refY="7" viewBox="0 0 14 14" orient="auto" id="SvgjsMarker1016"><polygon points="0,14 7,7 0,0 2,7" fill="black" stroke-width="1" stroke="black"></polygon></marker><marker markerWidth="14" markerHeight="14" refX="7" refY="7" viewBox="0 0 14 14" orient="auto" id="SvgjsMarker1017"><polygon points="0,14 7,7 0,0 2,7" fill="black" stroke-width="1" stroke="black"></polygon></marker></defs><polyline points="247.5,122.85714285714286 522.5,155 522.5,180" stroke="black" fill="none" marker-end="url(#SvgjsMarker1001)"></polyline><polyline points="590,26.398104265402843 137.5,65 137.5,90" stroke="black" fill="none" marker-end="url(#SvgjsMarker1002)"></polyline><polyline points="535,400 535,425 535,450" stroke="black" fill="none" marker-end="url(#SvgjsMarker1003)"></polyline><polyline points="571.1111111111111,320 535,335 535,360" stroke="black" fill="none"></polyline><polyline points="857.5,400 857.5,425 857.5,450" stroke="black" fill="none" marker-end="url(#SvgjsMarker1004)"></polyline><polyline points="705,320 857.5,335 857.5,360" stroke="black" fill="none"></polyline><polyline points="660.5555555555555,40 655,65 655,110 655,155 655,200 655,245 624.4444444444445,270" stroke="black" fill="none" marker-end="url(#SvgjsMarker1005)"></polyline><polyline points="1517.2222222222222,310 1457.5,335 1290,366.7368421052632" stroke="black" fill="none" marker-end="url(#SvgjsMarker1006)"></polyline><polyline points="1105,490 1105,515 1105,540" stroke="black" fill="none" marker-end="url(#SvgjsMarker1007)"></polyline><polyline points="1340,410 1105,425 1105,450" stroke="black" fill="none"></polyline><polyline points="1403.3333333333333,410 1370,425 1370,450" stroke="black" fill="none"></polyline><polyline points="1498.888888888889,410 1585,425 1585,450" stroke="black" fill="none"></polyline><polyline points="1569.4444444444443,310 1575,335 1494.4444444444443,360" stroke="black" fill="none" marker-end="url(#SvgjsMarker1008)"></polyline><polyline points="740,23.75 1565,65 1565,110 1565,155 1565,200 1565,245 1565,270" stroke="black" fill="none" marker-end="url(#SvgjsMarker1009)"></polyline><polyline points="835.5555555555555,130 780,155 780,180" stroke="black" fill="none" marker-end="url(#SvgjsMarker1010)"></polyline><polyline points="924.4444444444445,130 980,155 980,180" stroke="black" fill="none" marker-end="url(#SvgjsMarker1011)"></polyline><polyline points="1173.3333333333333,230 1115,245 1115,270" stroke="black" fill="none"></polyline><polyline points="1268.888888888889,230 1330,245 1330,270" stroke="black" fill="none"></polyline><polyline points="1005,126.54411764705883 1220,155 1220,180" stroke="black" fill="none" marker-end="url(#SvgjsMarker1012)"></polyline><polyline points="740,35.69767441860465 880,65 880,90" stroke="black" fill="none" marker-end="url(#SvgjsMarker1013)"></polyline><polyline points="522.5,220 522.5,245 565.5555555555555,270" stroke="black" fill="none" stroke-dasharray="4" marker-end="url(#SvgjsMarker1014)"></polyline><polyline points="980,220 980,245 705,277.5657894736842" stroke="black" fill="none" stroke-dasharray="4" marker-end="url(#SvgjsMarker1015)"></polyline><polyline points="1115,310 1115,335 1173.3333333333333,360" stroke="black" fill="none" stroke-dasharray="4" marker-end="url(#SvgjsMarker1016)"></polyline><polyline points="1330,310 1330,335 1385.5555555555557,360" stroke="black" fill="none" stroke-dasharray="4" marker-end="url(#SvgjsMarker1017)"></polyline></svg>