<?xml version="1.0" encoding="UTF-8" standalone="no"?><svg xmlns="http://www.w3.org/2000/svg" xmlns:xlink="http://www.w3.org/1999/xlink" contentScriptType="application/ecmascript" contentStyleType="text/css" height="662px" preserveAspectRatio="none" style="width:817px;height:662px;" version="1.1" viewBox="0 0 817 662" width="817px" zoomAndPan="magnify"><defs/><g><polygon fill="#FFFFFF" points="22,212,32,202,226,202,226,399,216,409,22,409,22,212" style="stroke: #000000; stroke-width: 1.5;"/><line style="stroke: #000000; stroke-width: 1.5;" x1="216" x2="225" y1="212" y2="203"/><line style="stroke: #000000; stroke-width: 1.5;" x1="22" x2="216" y1="212" y2="212"/><line style="stroke: #000000; stroke-width: 1.5;" x1="216" x2="216" y1="212" y2="409"/><text fill="#000000" font-family="Courier" font-size="14" font-weight="bold" lengthAdjust="spacingAndGlyphs" textLength="64" x="88" y="227.9951">Frontend</text><polygon fill="#FFFFFF" points="618,77,628,67,750,67,750,149,740,159,618,159,618,77" style="stroke: #000000; stroke-width: 1.5;"/><line style="stroke: #000000; stroke-width: 1.5;" x1="740" x2="749" y1="77" y2="68"/><line style="stroke: #000000; stroke-width: 1.5;" x1="618" x2="740" y1="77" y2="77"/><line style="stroke: #000000; stroke-width: 1.5;" x1="740" x2="740" y1="77" y2="159"/><text fill="#000000" font-family="Courier" font-size="14" font-weight="bold" lengthAdjust="spacingAndGlyphs" textLength="56" x="652" y="92.9951">Monitor</text><path d="M641,202 C641,192 723,192 723,192 C723,192 805,192 805,202 L805,284 C805,294 723,294 723,294 C723,294 641,294 641,284 L641,202 " fill="#FFFFFF" style="stroke: #000000; stroke-width: 1.5;"/><path d="M641,202 C641,212 723,212 723,212 C723,212 805,212 805,202 " fill="none" style="stroke: #000000; stroke-width: 1.5;"/><text fill="#000000" font-family="Courier" font-size="14" font-weight="bold" lengthAdjust="spacingAndGlyphs" textLength="64" x="691" y="226.9951">Database</text><polygon fill="#FFFFFF" points="250,34,260,24,594,24,594,640,584,650,250,650,250,34" style="stroke: #000000; stroke-width: 1.5;"/><line style="stroke: #000000; stroke-width: 1.5;" x1="584" x2="593" y1="34" y2="25"/><line style="stroke: #000000; stroke-width: 1.5;" x1="250" x2="584" y1="34" y2="34"/><line style="stroke: #000000; stroke-width: 1.5;" x1="584" x2="584" y1="34" y2="650"/><text fill="#000000" font-family="Courier" font-size="14" font-weight="bold" lengthAdjust="spacingAndGlyphs" textLength="56" x="390" y="49.9951">Backend</text><rect fill="#FFFFFF" height="222" style="stroke: #000000; stroke-width: 1.5;" width="180" x="390" y="72"/><rect fill="#FFFFFF" height="10" style="stroke: #000000; stroke-width: 1.5;" width="15" x="550" y="77"/><rect fill="#FFFFFF" height="2" style="stroke: #000000; stroke-width: 1.5;" width="4" x="548" y="79"/><rect fill="#FFFFFF" height="2" style="stroke: #000000; stroke-width: 1.5;" width="4" x="548" y="83"/><text fill="#000000" font-family="Courier" font-size="14" font-weight="bold" lengthAdjust="spacingAndGlyphs" textLength="136" x="412" y="97.9951">Courses Extractor</text><rect fill="#FFFFFF" height="184" style="stroke: #000000; stroke-width: 1.5;" width="267" x="293" y="442"/><rect fill="#FFFFFF" height="10" style="stroke: #000000; stroke-width: 1.5;" width="15" x="540" y="447"/><rect fill="#FFFFFF" height="2" style="stroke: #000000; stroke-width: 1.5;" width="4" x="538" y="449"/><rect fill="#FFFFFF" height="2" style="stroke: #000000; stroke-width: 1.5;" width="4" x="538" y="453"/><text fill="#000000" font-family="Courier" font-size="14" font-weight="bold" lengthAdjust="spacingAndGlyphs" textLength="88" x="382.5" y="467.9951">API Manager</text><rect fill="#F8F8F8" height="36.2969" style="stroke: #383838; stroke-width: 1.5;" width="140" x="62" y="242"/><rect fill="#F8F8F8" height="5" style="stroke: #383838; stroke-width: 1.5;" width="10" x="57" y="247"/><rect fill="#F8F8F8" height="5" style="stroke: #383838; stroke-width: 1.5;" width="10" x="57" y="268.2969"/><text fill="#000000" font-family="Courier" font-size="14" lengthAdjust="spacingAndGlyphs" textLength="120" x="72" y="264.9951">Web Application</text><rect fill="#F8F8F8" height="36.2969" style="stroke: #383838; stroke-width: 1.5;" width="172" x="38" y="357"/><rect fill="#F8F8F8" height="5" style="stroke: #383838; stroke-width: 1.5;" width="10" x="33" y="362"/><rect fill="#F8F8F8" height="5" style="stroke: #383838; stroke-width: 1.5;" width="10" x="33" y="383.2969"/><text fill="#000000" font-family="Courier" font-size="14" lengthAdjust="spacingAndGlyphs" textLength="152" x="48" y="379.9951">Notification System</text><rect fill="#F8F8F8" height="36.2969" style="stroke: #383838; stroke-width: 1.5;" width="84" x="634" y="107"/><rect fill="#F8F8F8" height="5" style="stroke: #383838; stroke-width: 1.5;" width="10" x="629" y="112"/><rect fill="#F8F8F8" height="5" style="stroke: #383838; stroke-width: 1.5;" width="10" x="629" y="133.2969"/><text fill="#000000" font-family="Courier" font-size="14" lengthAdjust="spacingAndGlyphs" textLength="64" x="644" y="129.9951">Watchdog</text><rect fill="#F8F8F8" height="36.2969" style="stroke: #383838; stroke-width: 1.5;" width="132" x="657" y="242"/><rect fill="#F8F8F8" height="5" style="stroke: #383838; stroke-width: 1.5;" width="10" x="652" y="247"/><rect fill="#F8F8F8" height="5" style="stroke: #383838; stroke-width: 1.5;" width="10" x="652" y="268.2969"/><text fill="#000000" font-family="Courier" font-size="14" lengthAdjust="spacingAndGlyphs" textLength="112" x="667" y="264.9951">Shortened URLs</text><rect fill="#F8F8F8" height="36.2969" style="stroke: #383838; stroke-width: 1.5;" width="124" x="418" y="357"/><rect fill="#F8F8F8" height="5" style="stroke: #383838; stroke-width: 1.5;" width="10" x="413" y="362"/><rect fill="#F8F8F8" height="5" style="stroke: #383838; stroke-width: 1.5;" width="10" x="413" y="383.2969"/><text fill="#000000" font-family="Courier" font-size="14" lengthAdjust="spacingAndGlyphs" textLength="104" x="428" y="379.9951">URL Middleman</text><rect fill="#F8F8F8" height="36.2969" style="stroke: #383838; stroke-width: 1.5;" width="108" x="266" y="242"/><rect fill="#F8F8F8" height="5" style="stroke: #383838; stroke-width: 1.5;" width="10" x="261" y="247"/><rect fill="#F8F8F8" height="5" style="stroke: #383838; stroke-width: 1.5;" width="10" x="261" y="268.2969"/><text fill="#000000" font-family="Courier" font-size="14" lengthAdjust="spacingAndGlyphs" textLength="88" x="276" y="264.9951">golang-ical</text><rect fill="#F8F8F8" height="36.2969" style="stroke: #383838; stroke-width: 1.5;" width="92" x="434" y="242"/><rect fill="#F8F8F8" height="5" style="stroke: #383838; stroke-width: 1.5;" width="10" x="429" y="247"/><rect fill="#F8F8F8" height="5" style="stroke: #383838; stroke-width: 1.5;" width="10" x="429" y="268.2969"/><text fill="#000000" font-family="Courier" font-size="14" lengthAdjust="spacingAndGlyphs" textLength="72" x="444" y="264.9951">Extractor</text><rect fill="#F8F8F8" height="36.2969" style="stroke: #383838; stroke-width: 1.5;" width="148" x="406" y="107"/><rect fill="#F8F8F8" height="5" style="stroke: #383838; stroke-width: 1.5;" width="10" x="401" y="112"/><rect fill="#F8F8F8" height="5" style="stroke: #383838; stroke-width: 1.5;" width="10" x="401" y="133.2969"/><text fill="#000000" font-family="Courier" font-size="14" lengthAdjust="spacingAndGlyphs" textLength="128" x="416" y="129.9951">Links Repository</text><rect fill="#F8F8F8" height="36.2969" style="stroke: #383838; stroke-width: 1.5;" width="108" x="426" y="477"/><rect fill="#F8F8F8" height="5" style="stroke: #383838; stroke-width: 1.5;" width="10" x="421" y="482"/><rect fill="#F8F8F8" height="5" style="stroke: #383838; stroke-width: 1.5;" width="10" x="421" y="503.2969"/><text fill="#000000" font-family="Courier" font-size="14" lengthAdjust="spacingAndGlyphs" textLength="88" x="436" y="499.9951">API Manager</text><rect fill="#F8F8F8" height="36.2969" style="stroke: #383838; stroke-width: 1.5;" width="100" x="309" y="574"/><rect fill="#F8F8F8" height="5" style="stroke: #383838; stroke-width: 1.5;" width="10" x="304" y="579"/><rect fill="#F8F8F8" height="5" style="stroke: #383838; stroke-width: 1.5;" width="10" x="304" y="600.2969"/><text fill="#000000" font-family="Courier" font-size="14" lengthAdjust="spacingAndGlyphs" textLength="80" x="319" y="596.9951">iCorsi API</text><rect fill="#F8F8F8" height="36.2969" style="stroke: #383838; stroke-width: 1.5;" width="100" x="444" y="574"/><rect fill="#F8F8F8" height="5" style="stroke: #383838; stroke-width: 1.5;" width="10" x="439" y="579"/><rect fill="#F8F8F8" height="5" style="stroke: #383838; stroke-width: 1.5;" width="10" x="439" y="600.2969"/><text fill="#000000" font-family="Courier" font-size="14" lengthAdjust="spacingAndGlyphs" textLength="80" x="454" y="596.9951">Github API</text><path d="M130.78,278.16 C129.28,299.4 126.74,335.36 125.23,356.68 " fill="none" id="WAPP-NS" style="stroke: #383838; stroke-width: 1.0;"/><path d="M480,143.12 C480,168.65 480,216.45 480,241.95 " fill="none" id="REPO-EXT" style="stroke: #383838; stroke-width: 1.0;"/><path d="M458.09,513.2 C436.16,530.42 402.62,556.75 380.75,573.92 " fill="none" id="API-ICAPI" style="stroke: #383838; stroke-width: 1.0;"/><path d="M482.57,513.42 C485.09,530.57 488.93,556.58 491.45,573.69 " fill="none" id="API-GHAPI" style="stroke: #383838; stroke-width: 1.0;"/><path d="M480,393.16 C480,415.53 480,454.44 480,476.82 " fill="none" id="URL-API" style="stroke: #383838; stroke-width: 1.0;"/><path d="M344.3,278.16 C374.46,299.46 425.59,335.57 455.73,356.86 " fill="none" id="ICAL-URL" style="stroke: #383838; stroke-width: 1.0;"/><path d="M480,278.16 C480,299.4 480,335.36 480,356.68 " fill="none" id="EXT-URL" style="stroke: #383838; stroke-width: 1.0;"/><path d="M702.77,278.21 C684.69,292.87 656.96,313.63 630,327 C602.37,340.7 569.91,351.47 542.26,359.21 " fill="none" id="URLS-URL" style="stroke: #383838; stroke-width: 1.0;"/><path d="M180.11,278.1 C201.47,285.59 226.93,294.38 250,302 C309,321.48 376.95,342.59 423.6,356.88 " fill="none" id="WAPP-URL" style="stroke: #383838; stroke-width: 1.0;"/><text fill="#000000" font-family="Courier" font-size="13" lengthAdjust="spacingAndGlyphs" textLength="40" x="327" y="323.0669">HTTPS</text><path d="M665.73,143 C658.75,154.56 649.32,170.2 641,184 C609.41,236.42 610.31,255.94 570,302 C551.16,323.53 525.28,343.48 506.11,356.89 " fill="none" id="WDOG-URL" style="stroke: #383838; stroke-width: 1.0;"/></g></svg>