<?xml version="1.0" encoding="UTF-8" standalone="no"?><svg xmlns="http://www.w3.org/2000/svg" xmlns:xlink="http://www.w3.org/1999/xlink" contentScriptType="application/ecmascript" contentStyleType="text/css" height="122px" preserveAspectRatio="none" style="width:458px;height:122px;" version="1.1" viewBox="0 0 458 122" width="458px" zoomAndPan="magnify"><defs/><g><rect fill="#FFFFFF" height="87" style="stroke: #000000; stroke-width: 1.5;" width="425" x="22" y="24"/><text fill="#000000" font-family="sans-serif" font-size="14" font-weight="bold" lengthAdjust="spacingAndGlyphs" textLength="252" x="108.5" y="38.9951">When the User is Authenticated</text><rect fill="#F8F8F8" height="36.2969" style="stroke: #000000; stroke-width: 1.5;" width="52" x="38" y="59"/><text fill="#000000" font-family="sans-serif" font-size="14" lengthAdjust="spacingAndGlyphs" textLength="32" x="48" y="81.9951">User</text><rect fill="#F8F8F8" height="36.2969" style="stroke: #000000; stroke-width: 1.5;" width="74" x="357" y="59"/><text fill="#000000" font-family="sans-serif" font-size="14" lengthAdjust="spacingAndGlyphs" textLength="54" x="367" y="81.9951">30 Mins</text><rect fill="#F8F8F8" height="36.2969" style="stroke: #383838; stroke-width: 1.5;" width="71" x="175.5" y="59"/><rect fill="#F8F8F8" height="5" style="stroke: #383838; stroke-width: 1.5;" width="10" x="170.5" y="64"/><rect fill="#F8F8F8" height="5" style="stroke: #383838; stroke-width: 1.5;" width="10" x="170.5" y="85.2969"/><text fill="#000000" font-family="sans-serif" font-size="14" lengthAdjust="spacingAndGlyphs" textLength="51" x="185.5" y="81.9951">System</text><path d="M90.28,77 C112.5,77 144.71,77 170.26,77 " fill="none" id="Source-&gt;System" style="stroke: #383838; stroke-width: 1.0;"/><polygon fill="#383838" points="175.28,77,166.28,73,170.28,77,166.28,81,175.28,77" style="stroke: #383838; stroke-width: 1.0;"/><text fill="#000000" font-family="sans-serif" font-size="13" lengthAdjust="spacingAndGlyphs" textLength="49" x="108.25" y="70.0669">Inactive</text><path d="M246.72,77 C276.83,77 319.98,77 351.8,77 " fill="none" id="System-&gt;Measure" style="stroke: #383838; stroke-width: 1.0;"/><polygon fill="#383838" points="356.8,77,347.8,73,351.8,77,347.8,81,356.8,77" style="stroke: #383838; stroke-width: 1.0;"/><text fill="#000000" font-family="sans-serif" font-size="13" lengthAdjust="spacingAndGlyphs" textLength="74" x="264.75" y="70.0669">Logged Out</text></g></svg>