<?xml version="1.0" encoding="UTF-8" standalone="no"?><svg xmlns="http://www.w3.org/2000/svg" xmlns:xlink="http://www.w3.org/1999/xlink" contentScriptType="application/ecmascript" contentStyleType="text/css" height="578px" preserveAspectRatio="none" style="width:595px;height:578px;" version="1.1" viewBox="0 0 595 578" width="595px" zoomAndPan="magnify"><defs/><g><rect fill="#F8F8F8" height="36.2969" style="stroke: #383838; stroke-width: 1.5;" width="47" x="286" y="116"/><rect fill="#F8F8F8" height="5" style="stroke: #383838; stroke-width: 1.5;" width="10" x="281" y="121"/><rect fill="#F8F8F8" height="5" style="stroke: #383838; stroke-width: 1.5;" width="10" x="281" y="142.2969"/><text fill="#000000" font-family="sans-serif" font-size="14" lengthAdjust="spacingAndGlyphs" textLength="27" x="296" y="138.9951">App</text><rect fill="#F8F8F8" height="36.2969" style="stroke: #383838; stroke-width: 1.5;" width="60" x="421.5" y="116"/><rect fill="#F8F8F8" height="5" style="stroke: #383838; stroke-width: 1.5;" width="10" x="416.5" y="121"/><rect fill="#F8F8F8" height="5" style="stroke: #383838; stroke-width: 1.5;" width="10" x="416.5" y="142.2969"/><text fill="#000000" font-family="sans-serif" font-size="14" lengthAdjust="spacingAndGlyphs" textLength="40" x="431.5" y="138.9951">Driver</text><ellipse cx="377.5" cy="134" fill="#F8F8F8" rx="8" ry="8" style="stroke: #383838; stroke-width: 2.0;"/><rect fill="#F8F8F8" height="36.2969" style="stroke: #383838; stroke-width: 1.5;" width="73" x="511" y="302"/><rect fill="#F8F8F8" height="5" style="stroke: #383838; stroke-width: 1.5;" width="10" x="506" y="307"/><rect fill="#F8F8F8" height="5" style="stroke: #383838; stroke-width: 1.5;" width="10" x="506" y="328.2969"/><text fill="#000000" font-family="sans-serif" font-size="14" lengthAdjust="spacingAndGlyphs" textLength="53" x="521" y="324.9951">Spooler</text><ellipse cx="466.5" cy="320" fill="#F8F8F8" rx="8" ry="8" style="stroke: #383838; stroke-width: 2.0;"/><rect fill="#F8F8F8" height="36.2969" style="stroke: #383838; stroke-width: 1.5;" width="67" x="433" y="509.5"/><rect fill="#F8F8F8" height="5" style="stroke: #383838; stroke-width: 1.5;" width="10" x="428" y="514.5"/><rect fill="#F8F8F8" height="5" style="stroke: #383838; stroke-width: 1.5;" width="10" x="428" y="535.7969"/><text fill="#000000" font-family="sans-serif" font-size="14" lengthAdjust="spacingAndGlyphs" textLength="47" x="443" y="532.4951">Queue</text><ellipse cx="388.5" cy="527.5" fill="#F8F8F8" rx="8" ry="8" style="stroke: #383838; stroke-width: 2.0;"/><rect fill="#F8F8F8" height="36.2969" style="stroke: #383838; stroke-width: 1.5;" width="65" x="198" y="302"/><rect fill="#F8F8F8" height="5" style="stroke: #383838; stroke-width: 1.5;" width="10" x="193" y="307"/><rect fill="#F8F8F8" height="5" style="stroke: #383838; stroke-width: 1.5;" width="10" x="193" y="328.2969"/><text fill="#000000" font-family="sans-serif" font-size="14" lengthAdjust="spacingAndGlyphs" textLength="45" x="208" y="324.9951">Printer</text><ellipse cx="153.5" cy="320" fill="#F8F8F8" rx="8" ry="8" style="stroke: #383838; stroke-width: 2.0;"/><path d="M334.5,8 L334.5,56.2656 A0,0 0 0 0 334.5,56.2656 L373.5,56.2656 L377.5,124.69 L381.5,56.2656 L420.5,56.2656 A0,0 0 0 0 420.5,56.2656 L420.5,18 L410.5,8 L334.5,8 A0,0 0 0 0 334.5,8 " fill="#ECECEC" style="stroke: #383838; stroke-width: 1.0;"/><path d="M410.5,8 L410.5,18 L420.5,18 L410.5,8 " fill="#ECECEC" style="stroke: #383838; stroke-width: 1.0;"/><text fill="#000000" font-family="sans-serif" font-size="13" lengthAdjust="spacingAndGlyphs" textLength="65" x="340.5" y="25.0669">operation:</text><line style="stroke: #383838; stroke-width: 1.0; stroke-dasharray: 1.0,2.0;" x1="335.5" x2="419.5" y1="28.1328" y2="28.1328"/><text fill="#000000" font-family="sans-serif" font-size="13" lengthAdjust="spacingAndGlyphs" textLength="64" x="340.5" y="44.1997">print(PDF)</text><path d="M298.5,296 L298.5,344.2656 A0,0 0 0 0 298.5,344.2656 L422.5,344.2656 A0,0 0 0 0 422.5,344.2656 L422.5,324 L457.24,320 L422.5,316 L422.5,306 L412.5,296 L298.5,296 A0,0 0 0 0 298.5,296 " fill="#ECECEC" style="stroke: #383838; stroke-width: 1.0;"/><path d="M412.5,296 L412.5,306 L422.5,306 L412.5,296 " fill="#ECECEC" style="stroke: #383838; stroke-width: 1.0;"/><text fill="#000000" font-family="sans-serif" font-size="13" lengthAdjust="spacingAndGlyphs" textLength="65" x="304.5" y="313.0669">operation:</text><line style="stroke: #383838; stroke-width: 1.0; stroke-dasharray: 1.0,2.0;" x1="299.5" x2="421.5" y1="316.1328" y2="316.1328"/><text fill="#000000" font-family="sans-serif" font-size="13" lengthAdjust="spacingAndGlyphs" textLength="103" x="304.5" y="332.1997">scheduleJob(PS)</text><path d="M251,488 L251,566.5313 A0,0 0 0 0 251,566.5313 L344,566.5313 A0,0 0 0 0 344,566.5313 L344,531.5 L379.47,527.5 L344,523.5 L344,498 L334,488 L251,488 A0,0 0 0 0 251,488 " fill="#ECECEC" style="stroke: #383838; stroke-width: 1.0;"/><path d="M334,488 L334,498 L344,498 L334,488 " fill="#ECECEC" style="stroke: #383838; stroke-width: 1.0;"/><text fill="#000000" font-family="sans-serif" font-size="13" lengthAdjust="spacingAndGlyphs" textLength="72" x="257" y="505.0669">operations:</text><line style="stroke: #383838; stroke-width: 1.0; stroke-dasharray: 1.0,2.0;" x1="252" x2="343" y1="508.1328" y2="508.1328"/><text fill="#000000" font-family="sans-serif" font-size="13" lengthAdjust="spacingAndGlyphs" textLength="55" x="257" y="524.1997">post(PS)</text><text fill="#000000" font-family="sans-serif" font-size="13" lengthAdjust="spacingAndGlyphs" textLength="42" x="257" y="539.3325">get(id)</text><text fill="#000000" font-family="sans-serif" font-size="13" lengthAdjust="spacingAndGlyphs" textLength="61" x="257" y="554.4653">delete(id)</text><path d="M6,212 L6,428.4609 A0,0 0 0 0 6,428.4609 L109,428.4609 A0,0 0 0 0 109,428.4609 L109,324 L144.17,320 L109,316 L109,222 L99,212 L6,212 A0,0 0 0 0 6,212 " fill="#ECECEC" style="stroke: #383838; stroke-width: 1.0;"/><path d="M99,212 L99,222 L109,222 L99,212 " fill="#ECECEC" style="stroke: #383838; stroke-width: 1.0;"/><text fill="#000000" font-family="sans-serif" font-size="13" lengthAdjust="spacingAndGlyphs" textLength="65" x="12" y="229.0669">operation:</text><line style="stroke: #383838; stroke-width: 1.0; stroke-dasharray: 1.0,2.0;" x1="7" x2="108" y1="232.1328" y2="232.1328"/><text fill="#000000" font-family="sans-serif" font-size="13" lengthAdjust="spacingAndGlyphs" textLength="50" x="12" y="248.1997">print(id)</text><text fill="#000000" font-family="sans-serif" font-size="13" lengthAdjust="spacingAndGlyphs" textLength="0" x="16" y="263.3325"/><line style="stroke: #383838; stroke-width: 1.0;" x1="7" x2="108" y1="270.3984" y2="270.3984"/><text fill="#000000" font-family="sans-serif" font-size="13" lengthAdjust="spacingAndGlyphs" textLength="47" x="12" y="286.4653">events:</text><line style="stroke: #383838; stroke-width: 1.0; stroke-dasharray: 1.0,2.0;" x1="7" x2="108" y1="293.5313" y2="293.5313"/><text fill="#000000" font-family="sans-serif" font-size="13" lengthAdjust="spacingAndGlyphs" textLength="82" x="12" y="309.5981">print_started</text><text fill="#000000" font-family="sans-serif" font-size="13" lengthAdjust="spacingAndGlyphs" textLength="68" x="12" y="324.731">print_done</text><text fill="#000000" font-family="sans-serif" font-size="13" lengthAdjust="spacingAndGlyphs" textLength="0" x="16" y="339.8638"/><line style="stroke: #383838; stroke-width: 1.0;" x1="7" x2="108" y1="346.9297" y2="346.9297"/><text fill="#000000" font-family="sans-serif" font-size="13" lengthAdjust="spacingAndGlyphs" textLength="69" x="12" y="362.9966">properties:</text><line style="stroke: #383838; stroke-width: 1.0; stroke-dasharray: 1.0,2.0;" x1="7" x2="108" y1="370.0625" y2="370.0625"/><text fill="#000000" font-family="sans-serif" font-size="13" lengthAdjust="spacingAndGlyphs" textLength="69" x="12" y="386.1294">paper_size</text><text fill="#000000" font-family="sans-serif" font-size="13" lengthAdjust="spacingAndGlyphs" textLength="31" x="12" y="401.2622">color</text><text fill="#000000" font-family="sans-serif" font-size="13" lengthAdjust="spacingAndGlyphs" textLength="42" x="12" y="416.395">duplex</text><path d="M333.14,134 C341.52,134 349.89,134 358.27,134 " fill="none" id="App-&gt;iDriver" style="stroke: #383838; stroke-width: 1.0;"/><path d="M365.4118,125.5428 A9,9 0 0 0 365.4118 142.4572" fill="none" style="stroke: #383838; stroke-width: 1.5;"/><path d="M386.75,134 C398.3,134 409.85,134 421.4,134 " fill="none" id="iDriver-Driver" style="stroke: #383838; stroke-width: 1.0;"/><path d="M333.06,146.19 C366.52,162.53 425.33,193.03 439.5,212 C459.31,238.52 464.68,277.99 466.08,300.85 " fill="none" id="App-&gt;iSpooler" style="stroke: #383838; stroke-width: 1.0;"/><path d="M474.8124,307.4339 A9,9 0 0 0 457.9124 308.135" fill="none" style="stroke: #383838; stroke-width: 1.5;"/><path d="M475.68,320 C487.37,320 499.06,320 510.75,320 " fill="none" id="iSpooler-Spooler" style="stroke: #383838; stroke-width: 1.0;"/><path d="M541.53,338.32 C533.23,360.7 516.58,400.1 493.5,428 C465.62,461.7 445.74,456.4 415.5,488 C409.29,494.49 403.43,502.51 398.77,509.55 " fill="none" id="Spooler-&gt;iQueue" style="stroke: #383838; stroke-width: 1.0;"/><path d="M402.024,520.2147 A9,9 0 0 0 387.7241 511.1806" fill="none" style="stroke: #383838; stroke-width: 1.5;"/><path d="M397.64,527.5 C409.39,527.5 421.13,527.5 432.88,527.5 " fill="none" id="iQueue-Queue" style="stroke: #383838; stroke-width: 1.0;"/><path d="M235.53,338.01 C242.77,360.42 257.79,400.22 280.5,428 C308.85,462.69 330.23,455.91 361.5,488 C367.77,494.43 373.63,502.44 378.29,509.49 " fill="none" id="Printer-&gt;iQueue" style="stroke: #383838; stroke-width: 1.0;"/><path d="M389.3231,511.164 A9,9 0 0 0 375.0014 520.1634" fill="none" style="stroke: #383838; stroke-width: 1.5;"/><path d="M162.52,320 C174.3,320 186.07,320 197.84,320 " fill="none" id="iPrinter-Printer" style="stroke: #383838; stroke-width: 1.0;"/><path d="M285.86,142.71 C256.6,153.5 207.37,175.91 180.5,212 C160.73,238.56 155.35,278.02 153.94,300.86 " fill="none" id="App-&gt;iPrinter" style="stroke: #383838; stroke-width: 1.0;"/><path d="M162.0914,308.1573 A9,9 0 0 0 145.1925 307.432" fill="none" style="stroke: #383838; stroke-width: 1.5;"/></g></svg>