<?xml version="1.0" encoding="UTF-8" standalone="no"?><svg xmlns="http://www.w3.org/2000/svg" xmlns:xlink="http://www.w3.org/1999/xlink" contentScriptType="application/ecmascript" contentStyleType="text/css" height="312px" preserveAspectRatio="none" style="width:385px;height:312px;" version="1.1" viewBox="0 0 385 312" width="385px" zoomAndPan="magnify"><defs/><g><text fill="#000000" font-family="Courier" font-size="14" font-weight="bold" lengthAdjust="spacingAndGlyphs" textLength="328" x="27" y="22.9951">Restart the URL Middleman if it goes down</text><line style="stroke: #383838; stroke-width: 1.0; stroke-dasharray: 5.0,5.0;" x1="67" x2="67" y1="64.5938" y2="272.3906"/><line style="stroke: #383838; stroke-width: 1.0; stroke-dasharray: 5.0,5.0;" x1="175" x2="175" y1="64.5938" y2="272.3906"/><line style="stroke: #383838; stroke-width: 1.0; stroke-dasharray: 5.0,5.0;" x1="299" x2="299" y1="64.5938" y2="272.3906"/><rect fill="#F8F8F8" height="30.2969" style="stroke: #383838; stroke-width: 1.5;" width="118" x="8" y="33.2969"/><text fill="#000000" font-family="Courier" font-size="14" lengthAdjust="spacingAndGlyphs" textLength="104" x="15" y="53.292">URL Middleman</text><rect fill="#F8F8F8" height="30.2969" style="stroke: #383838; stroke-width: 1.5;" width="118" x="8" y="271.3906"/><text fill="#000000" font-family="Courier" font-size="14" lengthAdjust="spacingAndGlyphs" textLength="104" x="15" y="291.3857">URL Middleman</text><rect fill="#F8F8F8" height="30.2969" style="stroke: #383838; stroke-width: 1.5;" width="78" x="136" y="33.2969"/><text fill="#000000" font-family="Courier" font-size="14" lengthAdjust="spacingAndGlyphs" textLength="64" x="143" y="53.292">Watchdog</text><rect fill="#F8F8F8" height="30.2969" style="stroke: #383838; stroke-width: 1.5;" width="78" x="136" y="271.3906"/><text fill="#000000" font-family="Courier" font-size="14" lengthAdjust="spacingAndGlyphs" textLength="64" x="143" y="291.3857">Watchdog</text><rect fill="#F8F8F8" height="30.2969" style="stroke: #383838; stroke-width: 1.5;" width="150" x="224" y="33.2969"/><text fill="#000000" font-family="Courier" font-size="14" lengthAdjust="spacingAndGlyphs" textLength="136" x="231" y="53.292">External Calendar</text><rect fill="#F8F8F8" height="30.2969" style="stroke: #383838; stroke-width: 1.5;" width="150" x="224" y="271.3906"/><text fill="#000000" font-family="Courier" font-size="14" lengthAdjust="spacingAndGlyphs" textLength="136" x="231" y="291.3857">External Calendar</text><polygon fill="#383838" points="78,91.7266,68,95.7266,78,99.7266,74,95.7266" style="stroke: #383838; stroke-width: 1.0;"/><line style="stroke: #383838; stroke-width: 1.0;" x1="72" x2="174" y1="95.7266" y2="95.7266"/><text fill="#000000" font-family="Courier" font-size="13" lengthAdjust="spacingAndGlyphs" textLength="40" x="84" y="90.6606">probe</text><line style="stroke: #383838; stroke-width: 1.0;" x1="175" x2="217" y1="124.8594" y2="124.8594"/><line style="stroke: #383838; stroke-width: 1.0;" x1="217" x2="217" y1="124.8594" y2="137.8594"/><line style="stroke: #383838; stroke-width: 1.0;" x1="176" x2="217" y1="137.8594" y2="137.8594"/><polygon fill="#383838" points="186,133.8594,176,137.8594,186,141.8594,182,137.8594" style="stroke: #383838; stroke-width: 1.0;"/><text fill="#000000" font-family="Courier" font-size="13" lengthAdjust="spacingAndGlyphs" textLength="56" x="182" y="119.7935">timeout</text><polygon fill="#383838" points="78,162.9922,68,166.9922,78,170.9922,74,166.9922" style="stroke: #383838; stroke-width: 1.0;"/><line style="stroke: #383838; stroke-width: 1.0;" x1="72" x2="174" y1="166.9922" y2="166.9922"/><text fill="#000000" font-family="Courier" font-size="13" lengthAdjust="spacingAndGlyphs" textLength="56" x="84" y="161.9263">restart</text><polygon fill="#383838" points="78,192.125,68,196.125,78,200.125,74,196.125" style="stroke: #383838; stroke-width: 1.0;"/><line style="stroke: #383838; stroke-width: 1.0;" x1="72" x2="174" y1="196.125" y2="196.125"/><text fill="#000000" font-family="Courier" font-size="13" lengthAdjust="spacingAndGlyphs" textLength="40" x="84" y="191.0591">probe</text><polygon fill="#383838" points="163,221.2578,173,225.2578,163,229.2578,167,225.2578" style="stroke: #383838; stroke-width: 1.0;"/><line style="stroke: #383838; stroke-width: 1.0;" x1="67" x2="169" y1="225.2578" y2="225.2578"/><text fill="#000000" font-family="Courier" font-size="13" lengthAdjust="spacingAndGlyphs" textLength="16" x="74" y="220.1919">ok</text><polygon fill="#383838" points="78,250.3906,68,254.3906,78,258.3906,74,254.3906" style="stroke: #383838; stroke-width: 1.0;"/><line style="stroke: #383838; stroke-width: 1.0;" x1="72" x2="298" y1="254.3906" y2="254.3906"/><text fill="#000000" font-family="Courier" font-size="13" lengthAdjust="spacingAndGlyphs" textLength="96" x="84" y="249.3247">GET urls/:id</text></g></svg>