<?xml version="1.0" encoding="UTF-8" standalone="no"?><svg xmlns="http://www.w3.org/2000/svg" xmlns:xlink="http://www.w3.org/1999/xlink" contentScriptType="application/ecmascript" contentStyleType="text/css" height="383px" preserveAspectRatio="none" style="width:717px;height:383px;" version="1.1" viewBox="0 0 717 383" width="717px" zoomAndPan="magnify"><defs/><g><text fill="#000000" font-family="Courier" font-size="14" font-weight="bold" lengthAdjust="spacingAndGlyphs" textLength="368" x="173" y="22.9951">Request for Github Repositories of a Classroom</text><rect fill="#E7E7E7" height="337.7891" style="stroke: #383838; stroke-width: 1.0;" width="424" x="157" y="34.2969"/><text fill="#000000" font-family="Courier" font-size="13" font-weight="bold" lengthAdjust="spacingAndGlyphs" textLength="72" x="333" y="46.3638">Classroom</text><rect fill="#FFFFFF" height="203.9297" style="stroke: #383838; stroke-width: 1.0;" width="10" x="199" y="115.8594"/><rect fill="#FFFFFF" height="145.6641" style="stroke: #383838; stroke-width: 1.0;" width="10" x="340" y="144.9922"/><rect fill="#FFFFFF" height="87.3984" style="stroke: #383838; stroke-width: 1.0;" width="10" x="521" y="174.125"/><rect fill="#FFFFFF" height="29.1328" style="stroke: #383838; stroke-width: 1.0;" width="10" x="654" y="203.2578"/><line style="stroke: #383838; stroke-width: 1.0; stroke-dasharray: 5.0,5.0;" x1="71" x2="71" y1="84.7266" y2="337.7891"/><line style="stroke: #383838; stroke-width: 1.0; stroke-dasharray: 5.0,5.0;" x1="204" x2="204" y1="84.7266" y2="337.7891"/><line style="stroke: #383838; stroke-width: 1.0; stroke-dasharray: 5.0,5.0;" x1="345" x2="345" y1="84.7266" y2="337.7891"/><line style="stroke: #383838; stroke-width: 1.0; stroke-dasharray: 5.0,5.0;" x1="526" x2="526" y1="84.7266" y2="337.7891"/><line style="stroke: #383838; stroke-width: 1.0; stroke-dasharray: 5.0,5.0;" x1="659" x2="659" y1="84.7266" y2="337.7891"/><rect fill="#F8F8F8" height="30.2969" style="stroke: #383838; stroke-width: 1.5;" width="126" x="8" y="53.4297"/><text fill="#000000" font-family="Courier" font-size="14" lengthAdjust="spacingAndGlyphs" textLength="112" x="15" y="73.4248">User Interface</text><rect fill="#F8F8F8" height="30.2969" style="stroke: #383838; stroke-width: 1.5;" width="126" x="8" y="336.7891"/><text fill="#000000" font-family="Courier" font-size="14" lengthAdjust="spacingAndGlyphs" textLength="112" x="15" y="356.7842">User Interface</text><rect fill="#F8F8F8" height="30.2969" style="stroke: #383838; stroke-width: 1.5;" width="86" x="161" y="53.4297"/><text fill="#000000" font-family="Courier" font-size="14" lengthAdjust="spacingAndGlyphs" textLength="72" x="168" y="73.4248">Classroom</text><rect fill="#F8F8F8" height="30.2969" style="stroke: #383838; stroke-width: 1.5;" width="86" x="161" y="336.7891"/><text fill="#000000" font-family="Courier" font-size="14" lengthAdjust="spacingAndGlyphs" textLength="72" x="168" y="356.7842">Classroom</text><rect fill="#F8F8F8" height="30.2969" style="stroke: #383838; stroke-width: 1.5;" width="142" x="274" y="53.4297"/><text fill="#000000" font-family="Courier" font-size="14" lengthAdjust="spacingAndGlyphs" textLength="128" x="281" y="73.4248">Github Classroom</text><rect fill="#F8F8F8" height="30.2969" style="stroke: #383838; stroke-width: 1.5;" width="142" x="274" y="336.7891"/><text fill="#000000" font-family="Courier" font-size="14" lengthAdjust="spacingAndGlyphs" textLength="128" x="281" y="356.7842">Github Classroom</text><rect fill="#F8F8F8" height="30.2969" style="stroke: #383838; stroke-width: 1.5;" width="102" x="475" y="53.4297"/><text fill="#000000" font-family="Courier" font-size="14" lengthAdjust="spacingAndGlyphs" textLength="88" x="482" y="73.4248">API Manager</text><rect fill="#F8F8F8" height="30.2969" style="stroke: #383838; stroke-width: 1.5;" width="102" x="475" y="336.7891"/><text fill="#000000" font-family="Courier" font-size="14" lengthAdjust="spacingAndGlyphs" textLength="88" x="482" y="356.7842">API Manager</text><rect fill="#F8F8F8" height="30.2969" style="stroke: #383838; stroke-width: 1.5;" width="94" x="612" y="53.4297"/><text fill="#000000" font-family="Courier" font-size="14" lengthAdjust="spacingAndGlyphs" textLength="80" x="619" y="73.4248">Github API</text><rect fill="#F8F8F8" height="30.2969" style="stroke: #383838; stroke-width: 1.5;" width="94" x="612" y="336.7891"/><text fill="#000000" font-family="Courier" font-size="14" lengthAdjust="spacingAndGlyphs" textLength="80" x="619" y="356.7842">Github API</text><rect fill="#FFFFFF" height="203.9297" style="stroke: #383838; stroke-width: 1.0;" width="10" x="199" y="115.8594"/><rect fill="#FFFFFF" height="145.6641" style="stroke: #383838; stroke-width: 1.0;" width="10" x="340" y="144.9922"/><rect fill="#FFFFFF" height="87.3984" style="stroke: #383838; stroke-width: 1.0;" width="10" x="521" y="174.125"/><rect fill="#FFFFFF" height="29.1328" style="stroke: #383838; stroke-width: 1.0;" width="10" x="654" y="203.2578"/><polygon fill="#383838" points="187,111.8594,197,115.8594,187,119.8594,191,115.8594" style="stroke: #383838; stroke-width: 1.0;"/><line style="stroke: #383838; stroke-width: 1.0;" x1="71" x2="193" y1="115.8594" y2="115.8594"/><text fill="#000000" font-family="Courier" font-size="13" lengthAdjust="spacingAndGlyphs" textLength="104" x="78" y="110.7935">Request Links</text><polygon fill="#383838" points="328,140.9922,338,144.9922,328,148.9922,332,144.9922" style="stroke: #383838; stroke-width: 1.0;"/><line style="stroke: #383838; stroke-width: 1.0;" x1="209" x2="334" y1="144.9922" y2="144.9922"/><text fill="#000000" font-family="Courier" font-size="13" lengthAdjust="spacingAndGlyphs" textLength="112" x="216" y="139.9263">Request Github</text><polygon fill="#383838" points="509,170.125,519,174.125,509,178.125,513,174.125" style="stroke: #383838; stroke-width: 1.0;"/><line style="stroke: #383838; stroke-width: 1.0;" x1="350" x2="515" y1="174.125" y2="174.125"/><text fill="#000000" font-family="Courier" font-size="13" lengthAdjust="spacingAndGlyphs" textLength="152" x="357" y="169.0591">Delegate to Manager</text><polygon fill="#383838" points="642,199.2578,652,203.2578,642,207.2578,646,203.2578" style="stroke: #383838; stroke-width: 1.0;"/><line style="stroke: #383838; stroke-width: 1.0;" x1="531" x2="648" y1="203.2578" y2="203.2578"/><text fill="#000000" font-family="Courier" font-size="13" lengthAdjust="spacingAndGlyphs" textLength="104" x="538" y="198.1919">Request Links</text><polygon fill="#383838" points="542,228.3906,532,232.3906,542,236.3906,538,232.3906" style="stroke: #383838; stroke-width: 1.0;"/><line style="stroke: #383838; stroke-width: 1.0;" x1="536" x2="658" y1="232.3906" y2="232.3906"/><text fill="#000000" font-family="Courier" font-size="13" lengthAdjust="spacingAndGlyphs" textLength="96" x="548" y="227.3247">Return Links</text><polygon fill="#383838" points="361,257.5234,351,261.5234,361,265.5234,357,261.5234" style="stroke: #383838; stroke-width: 1.0;"/><line style="stroke: #383838; stroke-width: 1.0;" x1="355" x2="525" y1="261.5234" y2="261.5234"/><text fill="#000000" font-family="Courier" font-size="13" lengthAdjust="spacingAndGlyphs" textLength="96" x="367" y="256.4575">Return Links</text><polygon fill="#383838" points="220,286.6563,210,290.6563,220,294.6563,216,290.6563" style="stroke: #383838; stroke-width: 1.0;"/><line style="stroke: #383838; stroke-width: 1.0;" x1="214" x2="344" y1="290.6563" y2="290.6563"/><text fill="#000000" font-family="Courier" font-size="13" lengthAdjust="spacingAndGlyphs" textLength="96" x="226" y="285.5903">Return Links</text><polygon fill="#383838" points="82,315.7891,72,319.7891,82,323.7891,78,319.7891" style="stroke: #383838; stroke-width: 1.0;"/><line style="stroke: #383838; stroke-width: 1.0;" x1="76" x2="203" y1="319.7891" y2="319.7891"/><text fill="#000000" font-family="Courier" font-size="13" lengthAdjust="spacingAndGlyphs" textLength="104" x="88" y="314.7231">Display Links</text></g></svg>