<?xml version="1.0" encoding="UTF-8" standalone="no"?><svg xmlns="http://www.w3.org/2000/svg" xmlns:xlink="http://www.w3.org/1999/xlink" contentScriptType="application/ecmascript" contentStyleType="text/css" height="660px" preserveAspectRatio="none" style="width:794px;height:660px;" version="1.1" viewBox="0 0 794 660" width="794px" zoomAndPan="magnify"><defs/><g><polygon fill="#FFFFFF" points="22,210,32,200,226,200,226,397,216,407,22,407,22,210" style="stroke: #000000; stroke-width: 1.5;"/><line style="stroke: #000000; stroke-width: 1.5;" x1="216" x2="225" y1="210" y2="201"/><line style="stroke: #000000; stroke-width: 1.5;" x1="22" x2="216" y1="210" y2="210"/><line style="stroke: #000000; stroke-width: 1.5;" x1="216" x2="216" y1="210" y2="407"/><text fill="#000000" font-family="Courier" font-size="14" font-weight="bold" lengthAdjust="spacingAndGlyphs" textLength="64" x="88" y="225.9951">Frontend</text><path d="M618,200 C618,190 700,190 700,190 C700,190 782,190 782,200 L782,282 C782,292 700,292 700,292 C700,292 618,292 618,282 L618,200 " fill="#FFFFFF" style="stroke: #000000; stroke-width: 1.5;"/><path d="M618,200 C618,210 700,210 700,210 C700,210 782,210 782,200 " fill="none" style="stroke: #000000; stroke-width: 1.5;"/><text fill="#000000" font-family="Courier" font-size="14" font-weight="bold" lengthAdjust="spacingAndGlyphs" textLength="64" x="668" y="224.9951">Database</text><polygon fill="#FFFFFF" points="250,34,260,24,594,24,594,638,584,648,250,648,250,34" style="stroke: #000000; stroke-width: 1.5;"/><line style="stroke: #000000; stroke-width: 1.5;" x1="584" x2="593" y1="34" y2="25"/><line style="stroke: #000000; stroke-width: 1.5;" x1="250" x2="584" y1="34" y2="34"/><line style="stroke: #000000; stroke-width: 1.5;" x1="584" x2="584" y1="34" y2="648"/><text fill="#000000" font-family="Courier" font-size="14" font-weight="bold" lengthAdjust="spacingAndGlyphs" textLength="56" x="390" y="49.9951">Backend</text><rect fill="#FFFFFF" height="220" style="stroke: #000000; stroke-width: 1.5;" width="180" x="390" y="72"/><rect fill="#FFFFFF" height="10" style="stroke: #000000; stroke-width: 1.5;" width="15" x="550" y="77"/><rect fill="#FFFFFF" height="2" style="stroke: #000000; stroke-width: 1.5;" width="4" x="548" y="79"/><rect fill="#FFFFFF" height="2" style="stroke: #000000; stroke-width: 1.5;" width="4" x="548" y="83"/><text fill="#000000" font-family="Courier" font-size="14" font-weight="bold" lengthAdjust="spacingAndGlyphs" textLength="136" x="412" y="97.9951">Courses Extractor</text><rect fill="#FFFFFF" height="184" style="stroke: #000000; stroke-width: 1.5;" width="267" x="288" y="440"/><rect fill="#FFFFFF" height="10" style="stroke: #000000; stroke-width: 1.5;" width="15" x="535" y="445"/><rect fill="#FFFFFF" height="2" style="stroke: #000000; stroke-width: 1.5;" width="4" x="533" y="447"/><rect fill="#FFFFFF" height="2" style="stroke: #000000; stroke-width: 1.5;" width="4" x="533" y="451"/><text fill="#000000" font-family="Courier" font-size="14" font-weight="bold" lengthAdjust="spacingAndGlyphs" textLength="88" x="377.5" y="465.9951">API Manager</text><rect fill="#F8F8F8" height="36.2969" style="stroke: #383838; stroke-width: 1.5;" width="140" x="62" y="240"/><rect fill="#F8F8F8" height="5" style="stroke: #383838; stroke-width: 1.5;" width="10" x="57" y="245"/><rect fill="#F8F8F8" height="5" style="stroke: #383838; stroke-width: 1.5;" width="10" x="57" y="266.2969"/><text fill="#000000" font-family="Courier" font-size="14" lengthAdjust="spacingAndGlyphs" textLength="120" x="72" y="262.9951">Web Application</text><rect fill="#F8F8F8" height="36.2969" style="stroke: #383838; stroke-width: 1.5;" width="172" x="38" y="355"/><rect fill="#F8F8F8" height="5" style="stroke: #383838; stroke-width: 1.5;" width="10" x="33" y="360"/><rect fill="#F8F8F8" height="5" style="stroke: #383838; stroke-width: 1.5;" width="10" x="33" y="381.2969"/><text fill="#000000" font-family="Courier" font-size="14" lengthAdjust="spacingAndGlyphs" textLength="152" x="48" y="377.9951">Notification System</text><rect fill="#F8F8F8" height="36.2969" style="stroke: #383838; stroke-width: 1.5;" width="132" x="634" y="240"/><rect fill="#F8F8F8" height="5" style="stroke: #383838; stroke-width: 1.5;" width="10" x="629" y="245"/><rect fill="#F8F8F8" height="5" style="stroke: #383838; stroke-width: 1.5;" width="10" x="629" y="266.2969"/><text fill="#000000" font-family="Courier" font-size="14" lengthAdjust="spacingAndGlyphs" textLength="112" x="644" y="262.9951">Shortened URLs</text><rect fill="#F8F8F8" height="36.2969" style="stroke: #383838; stroke-width: 1.5;" width="124" x="297" y="355"/><rect fill="#F8F8F8" height="5" style="stroke: #383838; stroke-width: 1.5;" width="10" x="292" y="360"/><rect fill="#F8F8F8" height="5" style="stroke: #383838; stroke-width: 1.5;" width="10" x="292" y="381.2969"/><text fill="#000000" font-family="Courier" font-size="14" lengthAdjust="spacingAndGlyphs" textLength="104" x="307" y="377.9951">URL Middleman</text><rect fill="#F8F8F8" height="36.2969" style="stroke: #383838; stroke-width: 1.5;" width="108" x="266" y="240"/><rect fill="#F8F8F8" height="5" style="stroke: #383838; stroke-width: 1.5;" width="10" x="261" y="245"/><rect fill="#F8F8F8" height="5" style="stroke: #383838; stroke-width: 1.5;" width="10" x="261" y="266.2969"/><text fill="#000000" font-family="Courier" font-size="14" lengthAdjust="spacingAndGlyphs" textLength="88" x="276" y="262.9951">golang-ical</text><rect fill="#F8F8F8" height="36.2969" style="stroke: #383838; stroke-width: 1.5;" width="92" x="421" y="240"/><rect fill="#F8F8F8" height="5" style="stroke: #383838; stroke-width: 1.5;" width="10" x="416" y="245"/><rect fill="#F8F8F8" height="5" style="stroke: #383838; stroke-width: 1.5;" width="10" x="416" y="266.2969"/><text fill="#000000" font-family="Courier" font-size="14" lengthAdjust="spacingAndGlyphs" textLength="72" x="431" y="262.9951">Extractor</text><rect fill="#F8F8F8" height="36.2969" style="stroke: #383838; stroke-width: 1.5;" width="148" x="406" y="107"/><rect fill="#F8F8F8" height="5" style="stroke: #383838; stroke-width: 1.5;" width="10" x="401" y="112"/><rect fill="#F8F8F8" height="5" style="stroke: #383838; stroke-width: 1.5;" width="10" x="401" y="133.2969"/><text fill="#000000" font-family="Courier" font-size="14" lengthAdjust="spacingAndGlyphs" textLength="128" x="416" y="129.9951">Links Repository</text><rect fill="#F8F8F8" height="36.2969" style="stroke: #383838; stroke-width: 1.5;" width="108" x="305" y="475"/><rect fill="#F8F8F8" height="5" style="stroke: #383838; stroke-width: 1.5;" width="10" x="300" y="480"/><rect fill="#F8F8F8" height="5" style="stroke: #383838; stroke-width: 1.5;" width="10" x="300" y="501.2969"/><text fill="#000000" font-family="Courier" font-size="14" lengthAdjust="spacingAndGlyphs" textLength="88" x="315" y="497.9951">API Manager</text><rect fill="#F8F8F8" height="36.2969" style="stroke: #383838; stroke-width: 1.5;" width="100" x="304" y="572"/><rect fill="#F8F8F8" height="5" style="stroke: #383838; stroke-width: 1.5;" width="10" x="299" y="577"/><rect fill="#F8F8F8" height="5" style="stroke: #383838; stroke-width: 1.5;" width="10" x="299" y="598.2969"/><text fill="#000000" font-family="Courier" font-size="14" lengthAdjust="spacingAndGlyphs" textLength="80" x="314" y="594.9951">iCorsi API</text><rect fill="#F8F8F8" height="36.2969" style="stroke: #383838; stroke-width: 1.5;" width="100" x="439" y="572"/><rect fill="#F8F8F8" height="5" style="stroke: #383838; stroke-width: 1.5;" width="10" x="434" y="577"/><rect fill="#F8F8F8" height="5" style="stroke: #383838; stroke-width: 1.5;" width="10" x="434" y="598.2969"/><text fill="#000000" font-family="Courier" font-size="14" lengthAdjust="spacingAndGlyphs" textLength="80" x="449" y="594.9951">Github API</text><path d="M130.78,276.16 C129.28,297.4 126.74,333.36 125.23,354.68 " fill="none" id="WAPP-NS" style="stroke: #383838; stroke-width: 1.0;"/><path d="M478.3,143.13 C475.81,168.23 471.19,214.76 468.7,239.87 " fill="none" id="REPO-EXT" style="stroke: #383838; stroke-width: 1.0;"/><path d="M358.08,511.42 C357.18,528.57 355.81,554.58 354.91,571.69 " fill="none" id="API-ICAPI" style="stroke: #383838; stroke-width: 1.0;"/><path d="M382.54,511.2 C406.1,528.42 442.13,554.75 465.63,571.92 " fill="none" id="API-GHAPI" style="stroke: #383838; stroke-width: 1.0;"/><path d="M359,391.16 C359,413.53 359,452.44 359,474.82 " fill="none" id="URL-API" style="stroke: #383838; stroke-width: 1.0;"/><path d="M325.92,276.16 C333.25,297.4 345.67,333.36 353.02,354.68 " fill="none" id="ICAL-URL" style="stroke: #383838; stroke-width: 1.0;"/><path d="M450.6,276.16 C430.3,297.4 395.93,333.36 375.56,354.68 " fill="none" id="EXT-URL" style="stroke: #383838; stroke-width: 1.0;"/><path d="M648.58,276.04 C584.3,297.34 474.91,333.59 410.56,354.91 " fill="none" id="URLS-URL" style="stroke: #383838; stroke-width: 1.0;"/><path d="M166.48,276.16 C209.27,297.46 281.8,333.57 324.57,354.86 " fill="none" id="WAPP-URL" style="stroke: #383838; stroke-width: 1.0;"/><text fill="#000000" font-family="Courier" font-size="13" lengthAdjust="spacingAndGlyphs" textLength="40" x="261" y="321.0669">HTTPS</text></g></svg>