<?xml version="1.0" encoding="UTF-8" standalone="no"?><svg xmlns="http://www.w3.org/2000/svg" xmlns:xlink="http://www.w3.org/1999/xlink" contentScriptType="application/ecmascript" contentStyleType="text/css" height="653px" preserveAspectRatio="none" style="width:735px;height:653px;" version="1.1" viewBox="0 0 735 653" width="735px" zoomAndPan="magnify"><defs/><g><polygon fill="#FFFFFF" points="321,34,331,24,525,24,525,239,515,249,321,249,321,34" style="stroke: #000000; stroke-width: 1.5;"/><line style="stroke: #000000; stroke-width: 1.5;" x1="515" x2="524" y1="34" y2="25"/><line style="stroke: #000000; stroke-width: 1.5;" x1="321" x2="515" y1="34" y2="34"/><line style="stroke: #000000; stroke-width: 1.5;" x1="515" x2="515" y1="34" y2="249"/><text fill="#000000" font-family="Courier" font-size="14" font-weight="bold" lengthAdjust="spacingAndGlyphs" textLength="64" x="387" y="49.9951">Frontend</text><path d="M133,157 C133,147 215,147 215,147 C215,147 297,147 297,157 L297,239 C297,249 215,249 215,249 C215,249 133,249 133,239 L133,157 " fill="#FFFFFF" style="stroke: #000000; stroke-width: 1.5;"/><path d="M133,157 C133,167 215,167 215,167 C215,167 297,167 297,157 " fill="none" style="stroke: #000000; stroke-width: 1.5;"/><text fill="#000000" font-family="Courier" font-size="14" font-weight="bold" lengthAdjust="spacingAndGlyphs" textLength="104" x="163" y="181.9951">URLs Database</text><path d="M549,157 C549,147 631,147 631,147 C631,147 713,147 713,157 L713,239 C713,249 631,249 631,249 C631,249 549,249 549,239 L549,157 " fill="#FFFFFF" style="stroke: #000000; stroke-width: 1.5;"/><path d="M549,157 C549,167 631,167 631,167 C631,167 713,167 713,157 " fill="none" style="stroke: #000000; stroke-width: 1.5;"/><text fill="#000000" font-family="Courier" font-size="14" font-weight="bold" lengthAdjust="spacingAndGlyphs" textLength="128" x="567" y="181.9951">Courses Database</text><path d="M39.9147,310.1281 C47.5212,297.2867 58.4851,297.6789 66.3932,309.8083 C74.3276,295.3935 84.7364,293.5146 95.6435,306.6524 C102.995,291.8812 115.9671,288.5858 127.2198,302.333 C135.4881,292.0034 144.0436,289.9653 152.0686,302.5963 C161.0424,290.3929 175.3337,286.868 182.9114,304.061 C189.4101,291.5593 199.937,288.2783 209.4381,300.8896 C215.6585,287.9213 230.1394,285.1888 239.2858,297.4246 C249.2072,284.6183 260.4883,283.3013 269.4473,298.4624 C279.1738,286.5752 290.1916,287.0613 296.28,302.0893 C303.8501,287.0076 318.4301,288.8434 326.9954,300.9657 C337.8837,289.0932 349.8733,287.6779 356.6883,305.0951 C363.8477,293.0734 377.3525,291.5685 384.3267,305.2939 C395.006,290.0528 406.059,293.0669 413.7348,308.2017 C426.5527,293.3554 437.1921,295.2023 445,313 C448.0646,311.3114 449.9094,312.5817 450.3418,315.8415 C464.6104,323.1536 464.9406,335.9355 450.4369,343.3472 C468.542,351.9867 467.0075,367.1018 451.5029,376.8119 C467.8241,383.1353 468.3984,396.1559 455.7705,406.6234 C472.4087,416.4688 471.603,426.4839 456.1949,436.7803 C472.1024,442.5495 474.8637,455.1512 461.6349,466.2914 C476.208,475.3061 475.456,488.2617 459.8676,495.4482 C470.1234,506.6125 469.269,517.7554 453.677,523.1416 C464.8547,531.3479 465.5973,545.2261 451.9958,551.9884 C466.2201,562.2787 468.0897,575.4542 450.9135,584.7059 C461.479,599.2384 455.4679,613.0355 438,616 C438.3823,615.9859 438.5881,616.1523 438.4203,616.5549 C432.5212,631.2634 423.0399,630.1127 413.5617,620.163 C404.5563,636.8376 392.6509,635.8514 381.3622,622.6217 C372.9428,633.6636 362.0129,636.3798 353.9886,622.1931 C346.8265,634.7971 333.1136,637.4913 325.4081,622.7614 C317.9386,634.892 307.3706,636.6221 299.0137,623.6962 C288.9452,637.1652 278.7085,635.5668 269.5951,622.632 C260.8196,637.4614 251.4965,637.5026 239.58,626.2461 C230.4749,638.5303 218.5632,641.2168 209.289,626.4354 C201.3891,636.7554 190.7006,634.8807 184.8071,624.1068 C174.4508,638.1291 162.9732,636.6819 152.8949,623.7774 C144.2929,636.143 134.3595,634.7893 126.063,623.4319 C115.8686,636.7279 104.1571,633.4103 99.0464,618.5535 C91.5123,634.8944 77.9083,633.9859 67.2945,622.0063 C49.019,633.6772 35.6907,633.4147 30,609 C34.3587,607.8072 36.0959,609.9808 35.1661,614.122 C21.8509,605.1004 22.4414,593.5644 34.4167,583.9154 C18.2982,578.0367 18.6565,563.4231 31.3621,554.5465 C14.9634,547.1617 11.6876,531.0165 27.9202,520.3476 C16.0848,511.4987 15.7409,498.9329 30.5201,492.5756 C17.0516,484.4643 15.5975,470.0753 30.5786,462.0185 C16.8977,454.2802 15.4026,440.164 30.1357,432.0063 C15.4063,424.0508 16.464,409.7214 30.4204,402.0384 C18.5376,394.1673 16.1986,379.624 31.9459,373.2152 C19.5785,365.3448 19.1547,355.3357 31.9464,347.4658 C13.5645,334.6321 13.7835,313.764 37,306 C40.0335,305.6108 41.2807,307.411 39.9147,310.1281 " fill="#FFFFFF" style="stroke: #000000; stroke-width: 1.5;"/><text fill="#000000" font-family="Courier" font-size="14" font-weight="bold" lengthAdjust="spacingAndGlyphs" textLength="168" x="153.5" y="323.9951">URLs Management Cloud</text><rect fill="#FFFFFF" height="184" style="stroke: #000000; stroke-width: 1.5;" width="267" x="162" y="416"/><rect fill="#FFFFFF" height="10" style="stroke: #000000; stroke-width: 1.5;" width="15" x="409" y="421"/><rect fill="#FFFFFF" height="2" style="stroke: #000000; stroke-width: 1.5;" width="4" x="407" y="423"/><rect fill="#FFFFFF" height="2" style="stroke: #000000; stroke-width: 1.5;" width="4" x="407" y="427"/><text fill="#000000" font-family="Courier" font-size="14" font-weight="bold" lengthAdjust="spacingAndGlyphs" textLength="88" x="251.5" y="441.9951">API Manager</text><path d="M499.8687,307.9269 C508.5309,296.0969 517.2039,296.8841 526.3864,307.307 C532.9174,294.122 540.859,292.8638 552.188,301.6803 C558.9298,291.4119 569.7663,289.7129 575.5874,302.6103 C581.698,290.0939 589.1426,290.4817 598.9035,298.4567 C606.5252,286.8231 617.0151,285.77 624.0391,299.0595 C632.7542,290.4887 644.6152,293.4938 648.2762,305.1236 C657.5767,291.7941 669.0781,295.3231 676.2787,307.4349 C686.1116,295.0685 699.3373,299.6124 704,313 C705.3057,312.4004 706.0748,312.8454 705.988,314.3289 C717.5724,320.8594 717.165,329.998 707.1395,337.5979 C718.0045,342.9535 715.9941,351.2396 708.275,357.6478 C716.3919,363.3842 718.5416,370.2585 708.8111,376.5024 C719.1979,384.2961 718.1086,391.9096 707.6422,398.6003 C718.4948,403.6185 719.9223,412.3565 711.3654,420.6517 C722.4465,427.0162 722.2036,434.2125 711.8549,441.0902 C723.6913,448.6616 721.1474,456.7343 711.6028,464.0712 C720.9201,470.5077 719.034,479.1265 709.6631,483.7179 C721.0207,488.4408 719.6352,497.6291 711.7175,504.2781 C721.9555,512.8669 719.7935,522.6949 708.4249,528.3252 C717.5398,532.6305 717.1997,539.9772 710.0625,545.805 C719.1717,553.5804 721.1087,563.1469 707.9638,568.9001 C716.3645,575.8217 716.179,582.1407 707.6511,588.7963 C715.3087,602.23 711.9379,611.4133 697,616 C698.5,616.3829 698.9144,617.2482 698.2561,618.653 C692.2782,629.6744 684.4351,630.1823 676.1344,621.2248 C669.1499,634.6954 656.2691,634.8689 648.3345,622.2366 C641.9822,633.8447 631.7663,633.6221 625.2739,622.3779 C619.9838,637.7017 608.9086,640.5112 598.3363,627.378 C590.4098,638.4848 579.6473,638.0951 574.6994,624.525 C563.8569,636.854 555.7734,633.3965 549.2193,620.2378 C541.3437,631.0094 532.938,630.2434 525.1867,620.095 C508.9252,631.7851 497.3957,629.8112 492,609 C494.0254,609.4217 494.3145,610.3902 493.2649,612.0762 C482.579,606.5657 484.9694,596.3626 493.559,591.1227 C482.8423,585.7746 478.0875,575.982 489.7527,567.0893 C480.286,561.0956 479.2021,551.6653 489.9091,545.8201 C477.7022,541.6442 477.7871,534.1594 485.0351,525.3509 C474.0264,520.369 475.2733,512.0051 483.2806,505.3546 C473.5956,498.4296 474.5625,491.793 482.8763,484.5188 C474.0602,477.5725 471.5181,469.0461 483.4124,462.6066 C474.4713,457.2195 474.0687,449.2198 483.4548,443.8742 C474.396,435.6811 472.6989,425.1911 486.6313,420.0654 C478.054,413.5638 475.9067,407.7755 486.043,400.7053 C476.5594,393.5359 474.5076,384.9182 486.678,378.3643 C479.8585,371.1143 482.7628,362.202 491.8164,359.2103 C478.9878,353.2263 478.5335,343.5373 490.5293,336.1668 C479.0963,322.2319 480.5163,311.5344 499,306 C500.2598,306.1602 500.3967,306.9608 499.8687,307.9269 " fill="#FFFFFF" style="stroke: #000000; stroke-width: 1.5;"/><text fill="#000000" font-family="Courier" font-size="14" font-weight="bold" lengthAdjust="spacingAndGlyphs" textLength="192" x="502" y="323.9951">Courses Management Cloud</text><rect fill="#FFFFFF" height="184" style="stroke: #000000; stroke-width: 1.5;" width="180" x="508" y="416"/><rect fill="#FFFFFF" height="10" style="stroke: #000000; stroke-width: 1.5;" width="15" x="668" y="421"/><rect fill="#FFFFFF" height="2" style="stroke: #000000; stroke-width: 1.5;" width="4" x="666" y="423"/><rect fill="#FFFFFF" height="2" style="stroke: #000000; stroke-width: 1.5;" width="4" x="666" y="427"/><text fill="#000000" font-family="Courier" font-size="14" font-weight="bold" lengthAdjust="spacingAndGlyphs" textLength="136" x="530" y="441.9951">Courses Extractor</text><rect fill="#F8F8F8" height="36.2969" style="stroke: #383838; stroke-width: 1.5;" width="140" x="353" y="197"/><rect fill="#F8F8F8" height="5" style="stroke: #383838; stroke-width: 1.5;" width="10" x="348" y="202"/><rect fill="#F8F8F8" height="5" style="stroke: #383838; stroke-width: 1.5;" width="10" x="348" y="223.2969"/><text fill="#000000" font-family="Courier" font-size="14" lengthAdjust="spacingAndGlyphs" textLength="120" x="363" y="219.9951">Web Application</text><rect fill="#F8F8F8" height="36.2969" style="stroke: #383838; stroke-width: 1.5;" width="172" x="337" y="64"/><rect fill="#F8F8F8" height="5" style="stroke: #383838; stroke-width: 1.5;" width="10" x="332" y="69"/><rect fill="#F8F8F8" height="5" style="stroke: #383838; stroke-width: 1.5;" width="10" x="332" y="90.2969"/><text fill="#000000" font-family="Courier" font-size="14" lengthAdjust="spacingAndGlyphs" textLength="152" x="347" y="86.9951">Notification System</text><rect fill="#F8F8F8" height="36.2969" style="stroke: #383838; stroke-width: 1.5;" width="132" x="149" y="197"/><rect fill="#F8F8F8" height="5" style="stroke: #383838; stroke-width: 1.5;" width="10" x="144" y="202"/><rect fill="#F8F8F8" height="5" style="stroke: #383838; stroke-width: 1.5;" width="10" x="144" y="223.2969"/><text fill="#000000" font-family="Courier" font-size="14" lengthAdjust="spacingAndGlyphs" textLength="112" x="159" y="219.9951">Shortened URLs</text><rect fill="#F8F8F8" height="36.2969" style="stroke: #383838; stroke-width: 1.5;" width="132" x="565" y="197"/><rect fill="#F8F8F8" height="5" style="stroke: #383838; stroke-width: 1.5;" width="10" x="560" y="202"/><rect fill="#F8F8F8" height="5" style="stroke: #383838; stroke-width: 1.5;" width="10" x="560" y="223.2969"/><text fill="#000000" font-family="Courier" font-size="14" lengthAdjust="spacingAndGlyphs" textLength="112" x="575" y="219.9951">Users' Courses</text><rect fill="#F8F8F8" height="36.2969" style="stroke: #383838; stroke-width: 1.5;" width="124" x="157" y="333"/><rect fill="#F8F8F8" height="5" style="stroke: #383838; stroke-width: 1.5;" width="10" x="152" y="338"/><rect fill="#F8F8F8" height="5" style="stroke: #383838; stroke-width: 1.5;" width="10" x="152" y="359.2969"/><text fill="#000000" font-family="Courier" font-size="14" lengthAdjust="spacingAndGlyphs" textLength="104" x="167" y="355.9951">URL Middleman</text><rect fill="#F8F8F8" height="36.2969" style="stroke: #383838; stroke-width: 1.5;" width="108" x="38" y="451"/><rect fill="#F8F8F8" height="5" style="stroke: #383838; stroke-width: 1.5;" width="10" x="33" y="456"/><rect fill="#F8F8F8" height="5" style="stroke: #383838; stroke-width: 1.5;" width="10" x="33" y="477.2969"/><text fill="#000000" font-family="Courier" font-size="14" lengthAdjust="spacingAndGlyphs" textLength="88" x="48" y="473.9951">golang-ical</text><rect fill="#F8F8F8" height="36.2969" style="stroke: #383838; stroke-width: 1.5;" width="108" x="181" y="451"/><rect fill="#F8F8F8" height="5" style="stroke: #383838; stroke-width: 1.5;" width="10" x="176" y="456"/><rect fill="#F8F8F8" height="5" style="stroke: #383838; stroke-width: 1.5;" width="10" x="176" y="477.2969"/><text fill="#000000" font-family="Courier" font-size="14" lengthAdjust="spacingAndGlyphs" textLength="88" x="191" y="473.9951">API Manager</text><rect fill="#F8F8F8" height="36.2969" style="stroke: #383838; stroke-width: 1.5;" width="100" x="178" y="548"/><rect fill="#F8F8F8" height="5" style="stroke: #383838; stroke-width: 1.5;" width="10" x="173" y="553"/><rect fill="#F8F8F8" height="5" style="stroke: #383838; stroke-width: 1.5;" width="10" x="173" y="574.2969"/><text fill="#000000" font-family="Courier" font-size="14" lengthAdjust="spacingAndGlyphs" textLength="80" x="188" y="570.9951">iCorsi API</text><rect fill="#F8F8F8" height="36.2969" style="stroke: #383838; stroke-width: 1.5;" width="100" x="313" y="548"/><rect fill="#F8F8F8" height="5" style="stroke: #383838; stroke-width: 1.5;" width="10" x="308" y="553"/><rect fill="#F8F8F8" height="5" style="stroke: #383838; stroke-width: 1.5;" width="10" x="308" y="574.2969"/><text fill="#000000" font-family="Courier" font-size="14" lengthAdjust="spacingAndGlyphs" textLength="80" x="323" y="570.9951">Github API</text><rect fill="#F8F8F8" height="36.2969" style="stroke: #383838; stroke-width: 1.5;" width="156" x="520" y="333"/><rect fill="#F8F8F8" height="5" style="stroke: #383838; stroke-width: 1.5;" width="10" x="515" y="338"/><rect fill="#F8F8F8" height="5" style="stroke: #383838; stroke-width: 1.5;" width="10" x="515" y="359.2969"/><text fill="#000000" font-family="Courier" font-size="14" lengthAdjust="spacingAndGlyphs" textLength="136" x="530" y="355.9951">Courses Middleman</text><rect fill="#F8F8F8" height="36.2969" style="stroke: #383838; stroke-width: 1.5;" width="92" x="552" y="451"/><rect fill="#F8F8F8" height="5" style="stroke: #383838; stroke-width: 1.5;" width="10" x="547" y="456"/><rect fill="#F8F8F8" height="5" style="stroke: #383838; stroke-width: 1.5;" width="10" x="547" y="477.2969"/><text fill="#000000" font-family="Courier" font-size="14" lengthAdjust="spacingAndGlyphs" textLength="72" x="562" y="473.9951">Extractor</text><rect fill="#F8F8F8" height="36.2969" style="stroke: #383838; stroke-width: 1.5;" width="148" x="524" y="548"/><rect fill="#F8F8F8" height="5" style="stroke: #383838; stroke-width: 1.5;" width="10" x="519" y="553"/><rect fill="#F8F8F8" height="5" style="stroke: #383838; stroke-width: 1.5;" width="10" x="519" y="574.2969"/><text fill="#000000" font-family="Courier" font-size="14" lengthAdjust="spacingAndGlyphs" textLength="128" x="534" y="570.9951">Links Repository</text><path d="M423,100.13 C423,125.23 423,171.76 423,196.87 " fill="none" id="NS-WAPP" style="stroke: #383838; stroke-width: 1.0;"/><path d="M233.72,487.42 C232.45,504.57 230.54,530.58 229.28,547.69 " fill="none" id="API-ICAPI" style="stroke: #383838; stroke-width: 1.0;"/><path d="M258.18,487.2 C281.38,504.42 316.86,530.75 339.99,547.92 " fill="none" id="API-GHAPI" style="stroke: #383838; stroke-width: 1.0;"/><path d="M221.36,369.12 C224.39,391.05 229.6,428.85 232.63,450.81 " fill="none" id="URL-API" style="stroke: #383838; stroke-width: 1.0;"/><path d="M200.26,369.12 C176.25,391.05 134.86,428.85 110.82,450.81 " fill="none" id="URL-ICAL" style="stroke: #383838; stroke-width: 1.0;"/><path d="M215.51,233.24 C216.28,258.97 217.72,307.13 218.49,332.82 " fill="none" id="URLS-URL" style="stroke: #383838; stroke-width: 1.0;"/><path d="M598,487.42 C598,504.57 598,530.58 598,547.69 " fill="none" id="EXT-REPO" style="stroke: #383838; stroke-width: 1.0;"/><path d="M598,369.12 C598,391.05 598,428.85 598,450.81 " fill="none" id="CMM-EXT" style="stroke: #383838; stroke-width: 1.0;"/><path d="M626.75,233.24 C620.42,258.97 608.56,307.13 602.23,332.82 " fill="none" id="COURSES-CMM" style="stroke: #383838; stroke-width: 1.0;"/><path d="M396.75,233.24 C357.58,258.97 284.26,307.13 245.15,332.82 " fill="none" id="WAPP-URL" style="stroke: #383838; stroke-width: 1.0;"/><text fill="#000000" font-family="Courier" font-size="13" lengthAdjust="spacingAndGlyphs" textLength="40" x="346" y="278.0669">HTTPS</text><path d="M445.52,233.24 C479.12,258.97 542.01,307.13 575.57,332.82 " fill="none" id="WAPP-CMM" style="stroke: #383838; stroke-width: 1.0;"/><text fill="#000000" font-family="Courier" font-size="13" lengthAdjust="spacingAndGlyphs" textLength="40" x="506" y="278.0669">HTTPS</text></g></svg>