<?xml version="1.0" encoding="UTF-8" standalone="no"?><svg xmlns="http://www.w3.org/2000/svg" xmlns:xlink="http://www.w3.org/1999/xlink" contentScriptType="application/ecmascript" contentStyleType="text/css" height="387px" preserveAspectRatio="none" style="width:315px;height:387px;" version="1.1" viewBox="0 0 315 387" width="315px" zoomAndPan="magnify"><defs/><g><rect fill="#FFFFFF" height="62.5938" style="stroke: #444444; stroke-width: 1.0; stroke-dasharray: 7.0,7.0;" width="75" x="105" y="170"/><text fill="#000000" font-family="sans-serif" font-size="0" font-style="italic" lengthAdjust="spacingAndGlyphs" textLength="0" x="142.5" y="180">«boundary»</text><text fill="#444444" font-family="sans-serif" font-size="16" font-weight="bold" lengthAdjust="spacingAndGlyphs" textLength="37" x="124" y="204.8516">ASQ</text><text fill="#444444" font-family="sans-serif" font-size="12" lengthAdjust="spacingAndGlyphs" textLength="55" x="115" y="219.7637">[System]</text><rect fill="#08427B" height="85.1875" style="stroke: #073B6F; stroke-width: 1.5;" width="101" x="6" y="8"/><text fill="#FFFFFF" font-family="sans-serif" font-size="12" font-style="italic" lengthAdjust="spacingAndGlyphs" textLength="57" x="28" y="29.1387">«person»</text><text fill="#FFFFFF" font-family="sans-serif" font-size="16" font-weight="bold" lengthAdjust="spacingAndGlyphs" textLength="81" x="16" y="46.8203">Students</text><text fill="#FFFFFF" font-family="sans-serif" font-size="14" lengthAdjust="spacingAndGlyphs" textLength="0" x="58.5" y="63.5889"/><text fill="#FFFFFF" font-family="sans-serif" font-size="14" lengthAdjust="spacingAndGlyphs" textLength="0" x="58.5" y="79.8857"/><rect fill="#08427B" height="85.1875" style="stroke: #073B6F; stroke-width: 1.5;" width="77" x="191" y="8"/><text fill="#FFFFFF" font-family="sans-serif" font-size="12" font-style="italic" lengthAdjust="spacingAndGlyphs" textLength="57" x="201" y="29.1387">«person»</text><text fill="#FFFFFF" font-family="sans-serif" font-size="16" font-weight="bold" lengthAdjust="spacingAndGlyphs" textLength="48" x="205.5" y="46.8203">Profs</text><text fill="#FFFFFF" font-family="sans-serif" font-size="14" lengthAdjust="spacingAndGlyphs" textLength="0" x="231.5" y="63.5889"/><text fill="#FFFFFF" font-family="sans-serif" font-size="14" lengthAdjust="spacingAndGlyphs" textLength="0" x="231.5" y="79.8857"/><rect fill="#999999" height="52.5938" style="stroke: #8A8A8A; stroke-width: 1.5;" width="135" x="75" y="324"/><text fill="#FFFFFF" font-family="sans-serif" font-size="12" font-style="italic" lengthAdjust="spacingAndGlyphs" textLength="115" x="85" y="345.1387">«external_system»</text><text fill="#FFFFFF" font-family="sans-serif" font-size="16" font-weight="bold" lengthAdjust="spacingAndGlyphs" textLength="49" x="118" y="362.8203">iCorsi</text><path d="M46.67,93.1 C45.11,108.61 46.02,125.87 53.5,140 C63.49,158.88 82.31,172.96 100.07,182.76 " fill="none" id="user_s-&gt;boundary" style="stroke: #666666; stroke-width: 1.0;"/><polygon fill="#666666" points="104.56,185.16,98.5051,177.3922,100.1494,182.8048,94.7368,184.4492,104.56,185.16" style="stroke: #666666; stroke-width: 1.0;"/><text fill="#666666" font-family="sans-serif" font-size="13" font-weight="bold" lengthAdjust="spacingAndGlyphs" textLength="131" x="54.5" y="136.0669">Answer questions</text><path d="M213.75,93.13 C207.34,108.31 199.35,125.34 190.5,140 C185.2,148.78 178.79,157.71 172.39,165.93 " fill="none" id="user_p-&gt;boundary" style="stroke: #666666; stroke-width: 1.0;"/><polygon fill="#666666" points="169.26,169.9,177.9752,165.3126,172.3573,165.9749,171.695,160.3569,169.26,169.9" style="stroke: #666666; stroke-width: 1.0;"/><text fill="#666666" font-family="sans-serif" font-size="13" font-weight="bold" lengthAdjust="spacingAndGlyphs" textLength="104" x="199.5" y="136.0669">Ask questions</text><path d="M142.5,233.32 C142.5,258.31 142.5,293.38 142.5,318.44 " fill="none" id="boundary-&gt;icorsi" style="stroke: #666666; stroke-width: 1.0;"/><polygon fill="#666666" points="142.5,323.63,146.5,314.63,142.5,318.63,138.5,314.63,142.5,323.63" style="stroke: #666666; stroke-width: 1.0;"/><text fill="#666666" font-family="sans-serif" font-size="13" font-weight="bold" lengthAdjust="spacingAndGlyphs" textLength="102" x="161" y="276.0669">Import/Export</text><text fill="#666666" font-family="sans-serif" font-size="12" font-style="italic" lengthAdjust="spacingAndGlyphs" textLength="137" x="143.5" y="290.2715">[Student List, Grades]</text></g></svg>