<?xml version="1.0" encoding="UTF-8" standalone="no"?><svg xmlns="http://www.w3.org/2000/svg" xmlns:xlink="http://www.w3.org/1999/xlink" contentScriptType="application/ecmascript" contentStyleType="text/css" height="678px" preserveAspectRatio="none" style="width:964px;height:678px;" version="1.1" viewBox="0 0 964 678" width="964px" zoomAndPan="magnify"><defs/><g><polygon fill="#FFFFFF" points="477,34,487,24,681,24,681,282,671,292,477,292,477,34" style="stroke: #000000; stroke-width: 1.5;"/><line style="stroke: #000000; stroke-width: 1.5;" x1="671" x2="680" y1="34" y2="25"/><line style="stroke: #000000; stroke-width: 1.5;" x1="477" x2="671" y1="34" y2="34"/><line style="stroke: #000000; stroke-width: 1.5;" x1="671" x2="671" y1="34" y2="292"/><text fill="#000000" font-family="Courier" font-size="14" font-weight="bold" lengthAdjust="spacingAndGlyphs" textLength="64" x="543" y="49.9951">Frontend</text><path d="M41.338,158.655 C52.4692,141.6812 63.3754,142.8053 73.4892,159.623 C84.1357,145.1882 96.7108,143.9654 106.3012,160.7335 C116.0346,143.1885 126.5541,143.4248 139.1133,157.8317 C150.4791,142.3663 164.5556,139.6143 176.522,157.1509 C185.0121,141.6627 198.5571,139.8821 209.7033,154.1933 C221.9874,140.5381 232.0771,141.5861 239.0754,159.1641 C250.2925,144.263 261.3905,140.8421 273.6745,158.0131 C282.85,142.1232 296.442,141.1688 307.1315,156.3847 C318.965,143.1118 332.0721,142.6778 341.2295,159.4245 C352.4709,144.0601 364.7809,140.9742 376.4328,158.9916 C385.1655,146.6191 398.5463,144.4289 406.5305,159.8034 C418.9522,141.2681 434.8411,140.907 445,162 C448.0522,163.4418 448.2215,165.7346 445.8606,167.9582 C460.7405,175.4228 458.4443,188.6072 446.8078,196.9385 C463.998,204.5075 466.3365,218.196 452.7821,231.1361 C466.4062,242.2732 467.8008,257.0821 449.9194,265.6025 C465.1687,274.5741 465.5804,288.0082 449.4623,296.5159 C468.0261,305.9185 469.8204,319.6209 453.042,332.5358 C469.9027,342.8579 471.1723,354.0778 456.6399,367.6193 C473.6806,378.7903 471.8745,389.0307 457.5374,401.0441 C473.0257,413.2713 471.4826,424.7443 454.8844,434.421 C468.2677,446.585 466.5312,458.9988 450.3523,467.0576 C468.5516,475.0634 469.2585,489.6566 454.0723,501.2904 C469.6509,514.0929 466.8141,525.8956 448.6778,532.9542 C466.3405,540.5495 464.345,554.3896 451.1244,564.3886 C469.5509,575.8409 467.8416,586.7388 451.0499,598.1133 C467.1307,614.9289 457.762,632.9112 438,638 C442.4223,636.9816 444.3565,639.4006 443.2844,643.5829 C430.8821,657.8044 417.1477,655.2483 408.7887,639.0046 C397.1665,654.4801 386.4181,656.2375 372.9936,641.1128 C365.6074,655.625 351.0266,659.2915 340.6981,644.3376 C330.594,657.6642 317.1614,658.8747 308.5951,642.6662 C299.3029,662.8384 281.7042,661.8754 271.8026,643.2441 C262.0677,659.5173 249.6859,658.2519 239.6149,643.5939 C232.0318,660.4973 215.1051,663.5904 204.3867,646.8799 C191.4567,659.6366 179.8661,658.5045 172.8383,640.7725 C162.6562,658.657 149.2598,656.3807 139.7981,640.0763 C130.9199,656.9041 114.6773,655.6576 104.3506,641.7467 C92.8567,657.9426 82.2502,655.6442 72.199,640.2772 C53.3055,659.6705 40.0922,651.6407 30,631 C31.4323,629.5288 32.8919,629.569 33.928,631.4624 C21.1697,624.5454 20.4342,612.4313 31.2036,603.2428 C13.7018,588.9743 12.6161,575.9017 34.0166,564.4544 C19.7239,554.266 20.2919,545.4499 34.062,535.3052 C15.9408,527.12 11.3331,511.9095 29.0631,498.8131 C11.3014,487.4422 12.2308,472.4426 32.0259,464.2954 C20.2039,454.2773 17.5037,443.1019 33.2199,434.1754 C17.7935,426.887 15.304,412.0129 31.1965,402.7105 C14.6771,392.7723 12.6093,375.9238 31.3591,366.1424 C13.455,356.101 14.7909,344.1397 30.8109,333.528 C14.2818,324.229 14.0346,312.0023 30.0785,301.9478 C12.0668,286.4995 15.7338,274.9146 34.9334,264.2597 C17.6477,254.2742 13.8849,244.2232 30.9266,230.1995 C14.0959,219.283 17.4601,205.1202 33.3806,196.5955 C17.455,181.0955 14.8166,167.1839 37,155 C39.9199,153.87 41.7996,155.7715 41.338,158.655 " fill="#FFFFFF" style="stroke: #000000; stroke-width: 1.5;"/><text fill="#000000" font-family="Courier" font-size="14" font-weight="bold" lengthAdjust="spacingAndGlyphs" textLength="168" x="153.5" y="172.9951">URLs Management Cloud</text><rect fill="#FFFFFF" height="184" style="stroke: #000000; stroke-width: 1.5;" width="267" x="162" y="438"/><rect fill="#FFFFFF" height="10" style="stroke: #000000; stroke-width: 1.5;" width="15" x="409" y="443"/><rect fill="#FFFFFF" height="2" style="stroke: #000000; stroke-width: 1.5;" width="4" x="407" y="445"/><rect fill="#FFFFFF" height="2" style="stroke: #000000; stroke-width: 1.5;" width="4" x="407" y="449"/><text fill="#000000" font-family="Courier" font-size="14" font-weight="bold" lengthAdjust="spacingAndGlyphs" textLength="88" x="251.5" y="463.9951">API Manager</text><path d="M153,200 C153,190 235,190 235,190 C235,190 317,190 317,200 L317,282 C317,292 235,292 235,292 C235,292 153,292 153,282 L153,200 " fill="#FFFFFF" style="stroke: #000000; stroke-width: 1.5;"/><path d="M153,200 C153,210 235,210 235,210 C235,210 317,210 317,200 " fill="none" style="stroke: #000000; stroke-width: 1.5;"/><text fill="#000000" font-family="Courier" font-size="14" font-weight="bold" lengthAdjust="spacingAndGlyphs" textLength="104" x="183" y="224.9951">URLs Database</text><path d="M720.5283,160.0391 C727.7496,139.678 738.901,138.4196 754.3543,151.7822 C764.65,136.5617 777.0801,134.8769 788.0046,151.1095 C794.7623,132.7532 809.5864,131.9822 821.5018,145.7275 C831.6211,129.0001 848.2207,128.614 856.0613,147.9133 C868.6813,133.5366 881.5052,137.7156 887.8372,154.3553 C902.7129,141.0494 917.426,139.81 925,162 C927.491,160.9409 929.6575,162.5447 929.556,165.1891 C945.7258,176.7001 943.9365,190.2079 927.6593,199.9483 C944.264,208.4257 943.5729,224.7762 928.9102,234.3893 C943.8192,242.6085 945.3057,252.918 930.8874,263.1531 C946.8474,272.7408 949.2562,286.5593 933.6421,298.6007 C946.334,310.1659 947.0242,320.7499 931.5515,330.4673 C947.0086,338.4882 947.3573,355.5458 933.2846,365.0468 C949.6117,377.0971 948.7591,389.9081 933.3393,402.0054 C947.5749,410.4443 948.6063,423.3516 932.861,431.3012 C950.4714,439.885 948.9343,452.9819 934.858,463.5292 C952.2957,476.7923 950.1685,492.99 929.849,501.2375 C946.8026,510.9876 947.4267,524.2884 930.4279,534.6271 C946.6326,544.9658 942.0698,558.4733 928.2097,566.7349 C942.4088,576.5249 943.3237,590.1286 927.3427,599.1104 C942.7654,615.3491 940.9989,630.9916 918,638 C921.3469,638.7434 921.3602,641.3846 919.5251,643.5516 C912.8812,657.0089 899.2493,658.6889 891.1281,645.1028 C882.6094,665.6352 865.2288,666.5929 854.399,647.2305 C843.0857,664.1444 827.3611,663.7734 819.3426,644.0757 C811.0304,661.2696 798.0219,658.665 787.633,646.3038 C775.8006,659.6768 763.0776,658.9884 757.0664,640.6863 C741.3191,656.0394 719.5252,657.6014 713,631 C717.2018,629.9515 718.2133,632.0445 718.009,635.6958 C700.56,627.1637 697.5979,614.8202 712.0166,600.8136 C696.3311,590.0803 698.7314,578.5633 713.6319,569.4028 C693.9643,562.3525 695.9571,544.5392 709.5513,533.6885 C693.8549,523.4641 695.5314,509.0822 712.0953,501.3995 C697.6229,494.3497 694.2879,478.7717 709.3291,469.1875 C690.4751,460.6787 691.5482,442.3966 707.9056,432.5208 C695.421,422.7484 693.0863,411.4425 708.8734,402.5841 C691.9974,391.4686 691.2669,378.5467 709.368,367.9304 C693.9904,359.1942 690.735,343.5819 707.1054,332.801 C690.3562,323.3419 693.5203,307.9531 708.2114,299.5395 C691.192,287.6956 697.642,270.4946 713.5572,263.5417 C701.0486,253.6567 701.07,243.4263 715.3095,235.1947 C698.5101,225.0946 696.3478,211.657 714.2878,200.5329 C694.0827,184.7997 696.2136,165.2144 720,155 C722.7478,156.417 722.5168,158.1256 720.5283,160.0391 " fill="#FFFFFF" style="stroke: #000000; stroke-width: 1.5;"/><text fill="#000000" font-family="Courier" font-size="14" font-weight="bold" lengthAdjust="spacingAndGlyphs" textLength="192" x="723" y="172.9951">Courses Management Cloud</text><rect fill="#FFFFFF" height="184" style="stroke: #000000; stroke-width: 1.5;" width="180" x="729" y="438"/><rect fill="#FFFFFF" height="10" style="stroke: #000000; stroke-width: 1.5;" width="15" x="889" y="443"/><rect fill="#FFFFFF" height="2" style="stroke: #000000; stroke-width: 1.5;" width="4" x="887" y="445"/><rect fill="#FFFFFF" height="2" style="stroke: #000000; stroke-width: 1.5;" width="4" x="887" y="449"/><text fill="#000000" font-family="Courier" font-size="14" font-weight="bold" lengthAdjust="spacingAndGlyphs" textLength="136" x="751" y="463.9951">Courses Extractor</text><path d="M731,200 C731,190 813,190 813,190 C813,190 895,190 895,200 L895,282 C895,292 813,292 813,292 C813,292 731,292 731,282 L731,200 " fill="#FFFFFF" style="stroke: #000000; stroke-width: 1.5;"/><path d="M731,200 C731,210 813,210 813,210 C813,210 895,210 895,200 " fill="none" style="stroke: #000000; stroke-width: 1.5;"/><text fill="#000000" font-family="Courier" font-size="14" font-weight="bold" lengthAdjust="spacingAndGlyphs" textLength="128" x="749" y="224.9951">Courses Database</text><rect fill="#F8F8F8" height="36.2969" style="stroke: #383838; stroke-width: 1.5;" width="140" x="509" y="240"/><rect fill="#F8F8F8" height="5" style="stroke: #383838; stroke-width: 1.5;" width="10" x="504" y="245"/><rect fill="#F8F8F8" height="5" style="stroke: #383838; stroke-width: 1.5;" width="10" x="504" y="266.2969"/><text fill="#000000" font-family="Courier" font-size="14" lengthAdjust="spacingAndGlyphs" textLength="120" x="519" y="262.9951">Web Application</text><rect fill="#F8F8F8" height="36.2969" style="stroke: #383838; stroke-width: 1.5;" width="172" x="493" y="64"/><rect fill="#F8F8F8" height="5" style="stroke: #383838; stroke-width: 1.5;" width="10" x="488" y="69"/><rect fill="#F8F8F8" height="5" style="stroke: #383838; stroke-width: 1.5;" width="10" x="488" y="90.2969"/><text fill="#000000" font-family="Courier" font-size="14" lengthAdjust="spacingAndGlyphs" textLength="152" x="503" y="86.9951">Notification System</text><rect fill="#F8F8F8" height="36.2969" style="stroke: #383838; stroke-width: 1.5;" width="124" x="173" y="355"/><rect fill="#F8F8F8" height="5" style="stroke: #383838; stroke-width: 1.5;" width="10" x="168" y="360"/><rect fill="#F8F8F8" height="5" style="stroke: #383838; stroke-width: 1.5;" width="10" x="168" y="381.2969"/><text fill="#000000" font-family="Courier" font-size="14" lengthAdjust="spacingAndGlyphs" textLength="104" x="183" y="377.9951">URL Middleman</text><rect fill="#F8F8F8" height="36.2969" style="stroke: #383838; stroke-width: 1.5;" width="108" x="38" y="473"/><rect fill="#F8F8F8" height="5" style="stroke: #383838; stroke-width: 1.5;" width="10" x="33" y="478"/><rect fill="#F8F8F8" height="5" style="stroke: #383838; stroke-width: 1.5;" width="10" x="33" y="499.2969"/><text fill="#000000" font-family="Courier" font-size="14" lengthAdjust="spacingAndGlyphs" textLength="88" x="48" y="495.9951">golang-ical</text><rect fill="#F8F8F8" height="36.2969" style="stroke: #383838; stroke-width: 1.5;" width="108" x="181" y="473"/><rect fill="#F8F8F8" height="5" style="stroke: #383838; stroke-width: 1.5;" width="10" x="176" y="478"/><rect fill="#F8F8F8" height="5" style="stroke: #383838; stroke-width: 1.5;" width="10" x="176" y="499.2969"/><text fill="#000000" font-family="Courier" font-size="14" lengthAdjust="spacingAndGlyphs" textLength="88" x="191" y="495.9951">API Manager</text><rect fill="#F8F8F8" height="36.2969" style="stroke: #383838; stroke-width: 1.5;" width="100" x="178" y="570"/><rect fill="#F8F8F8" height="5" style="stroke: #383838; stroke-width: 1.5;" width="10" x="173" y="575"/><rect fill="#F8F8F8" height="5" style="stroke: #383838; stroke-width: 1.5;" width="10" x="173" y="596.2969"/><text fill="#000000" font-family="Courier" font-size="14" lengthAdjust="spacingAndGlyphs" textLength="80" x="188" y="592.9951">iCorsi API</text><rect fill="#F8F8F8" height="36.2969" style="stroke: #383838; stroke-width: 1.5;" width="100" x="313" y="570"/><rect fill="#F8F8F8" height="5" style="stroke: #383838; stroke-width: 1.5;" width="10" x="308" y="575"/><rect fill="#F8F8F8" height="5" style="stroke: #383838; stroke-width: 1.5;" width="10" x="308" y="596.2969"/><text fill="#000000" font-family="Courier" font-size="14" lengthAdjust="spacingAndGlyphs" textLength="80" x="323" y="592.9951">Github API</text><rect fill="#F8F8F8" height="36.2969" style="stroke: #383838; stroke-width: 1.5;" width="132" x="169" y="240"/><rect fill="#F8F8F8" height="5" style="stroke: #383838; stroke-width: 1.5;" width="10" x="164" y="245"/><rect fill="#F8F8F8" height="5" style="stroke: #383838; stroke-width: 1.5;" width="10" x="164" y="266.2969"/><text fill="#000000" font-family="Courier" font-size="14" lengthAdjust="spacingAndGlyphs" textLength="112" x="179" y="262.9951">Shortened URLs</text><rect fill="#F8F8F8" height="36.2969" style="stroke: #383838; stroke-width: 1.5;" width="156" x="735" y="355"/><rect fill="#F8F8F8" height="5" style="stroke: #383838; stroke-width: 1.5;" width="10" x="730" y="360"/><rect fill="#F8F8F8" height="5" style="stroke: #383838; stroke-width: 1.5;" width="10" x="730" y="381.2969"/><text fill="#000000" font-family="Courier" font-size="14" lengthAdjust="spacingAndGlyphs" textLength="136" x="745" y="377.9951">Courses Middleman</text><rect fill="#F8F8F8" height="36.2969" style="stroke: #383838; stroke-width: 1.5;" width="92" x="771" y="473"/><rect fill="#F8F8F8" height="5" style="stroke: #383838; stroke-width: 1.5;" width="10" x="766" y="478"/><rect fill="#F8F8F8" height="5" style="stroke: #383838; stroke-width: 1.5;" width="10" x="766" y="499.2969"/><text fill="#000000" font-family="Courier" font-size="14" lengthAdjust="spacingAndGlyphs" textLength="72" x="781" y="495.9951">Extractor</text><rect fill="#F8F8F8" height="36.2969" style="stroke: #383838; stroke-width: 1.5;" width="148" x="745" y="570"/><rect fill="#F8F8F8" height="5" style="stroke: #383838; stroke-width: 1.5;" width="10" x="740" y="575"/><rect fill="#F8F8F8" height="5" style="stroke: #383838; stroke-width: 1.5;" width="10" x="740" y="596.2969"/><text fill="#000000" font-family="Courier" font-size="14" lengthAdjust="spacingAndGlyphs" textLength="128" x="755" y="592.9951">Links Repository</text><rect fill="#F8F8F8" height="36.2969" style="stroke: #383838; stroke-width: 1.5;" width="132" x="747" y="240"/><rect fill="#F8F8F8" height="5" style="stroke: #383838; stroke-width: 1.5;" width="10" x="742" y="245"/><rect fill="#F8F8F8" height="5" style="stroke: #383838; stroke-width: 1.5;" width="10" x="742" y="266.2969"/><text fill="#000000" font-family="Courier" font-size="14" lengthAdjust="spacingAndGlyphs" textLength="112" x="757" y="262.9951">Users' Courses</text><path d="M579,100 C579,133.27 579,206.61 579,239.93 " fill="none" id="NS-WAPP" style="stroke: #383838; stroke-width: 1.0;"/><path d="M233.72,509.42 C232.45,526.57 230.54,552.58 229.28,569.69 " fill="none" id="API-ICAPI" style="stroke: #383838; stroke-width: 1.0;"/><path d="M258.18,509.2 C281.38,526.42 316.86,552.75 339.99,569.92 " fill="none" id="API-GHAPI" style="stroke: #383838; stroke-width: 1.0;"/><path d="M235,391.12 C235,413.05 235,450.85 235,472.81 " fill="none" id="URL-API" style="stroke: #383838; stroke-width: 1.0;"/><path d="M212.06,391.09 C197.56,402.02 178.5,416.62 162,430 C144.6,444.12 125.29,460.74 111.37,472.9 " fill="none" id="URL-ICAL" style="stroke: #383838; stroke-width: 1.0;"/><path d="M235,276.16 C235,297.4 235,333.36 235,354.68 " fill="none" id="URLS-URL" style="stroke: #383838; stroke-width: 1.0;"/><path d="M817.37,509.42 C817.73,526.57 818.28,552.58 818.64,569.69 " fill="none" id="EXT-REPO" style="stroke: #383838; stroke-width: 1.0;"/><path d="M813.59,391.12 C814.35,413.05 815.65,450.85 816.41,472.81 " fill="none" id="CMM-EXT" style="stroke: #383838; stroke-width: 1.0;"/><path d="M813,276.16 C813,297.4 813,333.36 813,354.68 " fill="none" id="COURSES-CMM" style="stroke: #383838; stroke-width: 1.0;"/><path d="M527.13,276.04 C462.28,297.34 351.93,333.59 287.01,354.91 " fill="none" id="WAPP-URL" style="stroke: #383838; stroke-width: 1.0;"/><text fill="#000000" font-family="Courier" font-size="13" lengthAdjust="spacingAndGlyphs" textLength="40" x="429" y="321.0669">HTTPS</text><path d="M614.29,276.04 C658.33,297.31 733.25,333.49 777.43,354.82 " fill="none" id="WAPP-CMM" style="stroke: #383838; stroke-width: 1.0;"/><text fill="#000000" font-family="Courier" font-size="13" lengthAdjust="spacingAndGlyphs" textLength="40" x="711" y="321.0669">HTTPS</text></g></svg>