<?xml version="1.0" encoding="UTF-8" standalone="no"?><svg xmlns="http://www.w3.org/2000/svg" xmlns:xlink="http://www.w3.org/1999/xlink" contentScriptType="application/ecmascript" contentStyleType="text/css" height="934px" preserveAspectRatio="none" style="width:352px;height:934px;" version="1.1" viewBox="0 0 352 934" width="352px" zoomAndPan="magnify"><defs/><g><rect fill="#F8F8F8" height="297.6484" id="App" style="stroke: #383838; stroke-width: 1.5;" width="103" x="118" y="8"/><text fill="#000000" font-family="sans-serif" font-size="12" lengthAdjust="spacingAndGlyphs" textLength="24" x="157.5" y="24.1387">App</text><line style="stroke: #383838; stroke-width: 1.5;" x1="119" x2="220" y1="31.9688" y2="31.9688"/><text fill="#000000" font-family="sans-serif" font-size="11" lengthAdjust="spacingAndGlyphs" textLength="0" x="128" y="46.1792"/><text fill="#000000" font-family="sans-serif" font-size="11" lengthAdjust="spacingAndGlyphs" textLength="52" x="124" y="58.9839">requires:</text><line style="stroke: #383838; stroke-width: 1.0;" x1="119" x2="220" y1="65.5781" y2="65.5781"/><text fill="#000000" font-family="sans-serif" font-size="11" lengthAdjust="spacingAndGlyphs" textLength="65" x="124" y="79.7886">operations:</text><line style="stroke: #383838; stroke-width: 1.0; stroke-dasharray: 1.0,2.0;" x1="119" x2="220" y1="86.3828" y2="86.3828"/><text fill="#000000" font-family="sans-serif" font-size="11" lengthAdjust="spacingAndGlyphs" textLength="55" x="124" y="100.5933">print(PDF)</text><text fill="#000000" font-family="sans-serif" font-size="11" lengthAdjust="spacingAndGlyphs" textLength="44" x="124" y="113.3979">print(id)</text><text fill="#000000" font-family="sans-serif" font-size="11" lengthAdjust="spacingAndGlyphs" textLength="91" x="124" y="126.2026">scheduleJob(PS)</text><text fill="#000000" font-family="sans-serif" font-size="11" lengthAdjust="spacingAndGlyphs" textLength="0" x="128" y="139.0073"/><line style="stroke: #383838; stroke-width: 1.0;" x1="119" x2="220" y1="145.6016" y2="145.6016"/><text fill="#000000" font-family="sans-serif" font-size="11" lengthAdjust="spacingAndGlyphs" textLength="63" x="124" y="159.812">properties:</text><line style="stroke: #383838; stroke-width: 1.0; stroke-dasharray: 1.0,2.0;" x1="119" x2="220" y1="166.4063" y2="166.4063"/><text fill="#000000" font-family="sans-serif" font-size="11" lengthAdjust="spacingAndGlyphs" textLength="61" x="124" y="180.6167">paper_size</text><text fill="#000000" font-family="sans-serif" font-size="11" lengthAdjust="spacingAndGlyphs" textLength="28" x="124" y="193.4214">color</text><text fill="#000000" font-family="sans-serif" font-size="11" lengthAdjust="spacingAndGlyphs" textLength="37" x="124" y="206.2261">duplex</text><text fill="#000000" font-family="sans-serif" font-size="11" lengthAdjust="spacingAndGlyphs" textLength="0" x="128" y="219.0308"/><line style="stroke: #383838; stroke-width: 1.0;" x1="119" x2="220" y1="225.625" y2="225.625"/><text fill="#000000" font-family="sans-serif" font-size="11" lengthAdjust="spacingAndGlyphs" textLength="42" x="124" y="239.8354">events:</text><line style="stroke: #383838; stroke-width: 1.0; stroke-dasharray: 1.0,2.0;" x1="119" x2="220" y1="246.4297" y2="246.4297"/><text fill="#000000" font-family="sans-serif" font-size="11" lengthAdjust="spacingAndGlyphs" textLength="73" x="124" y="260.6401">print_started</text><text fill="#000000" font-family="sans-serif" font-size="11" lengthAdjust="spacingAndGlyphs" textLength="60" x="124" y="273.4448">print_done</text><text fill="#000000" font-family="sans-serif" font-size="11" lengthAdjust="spacingAndGlyphs" textLength="0" x="128" y="286.2495"/><text fill="#000000" font-family="sans-serif" font-size="11" lengthAdjust="spacingAndGlyphs" textLength="0" x="128" y="299.0542"/><rect fill="#F8F8F8" height="111.9922" id="Driver" style="stroke: #383838; stroke-width: 1.5;" width="77" x="6" y="490"/><text fill="#000000" font-family="sans-serif" font-size="12" lengthAdjust="spacingAndGlyphs" textLength="36" x="26.5" y="506.1387">Driver</text><line style="stroke: #383838; stroke-width: 1.5;" x1="7" x2="82" y1="513.9688" y2="513.9688"/><text fill="#000000" font-family="sans-serif" font-size="11" lengthAdjust="spacingAndGlyphs" textLength="0" x="16" y="528.1792"/><text fill="#000000" font-family="sans-serif" font-size="11" lengthAdjust="spacingAndGlyphs" textLength="53" x="12" y="540.9839">provides:</text><line style="stroke: #383838; stroke-width: 1.0;" x1="7" x2="82" y1="547.5781" y2="547.5781"/><text fill="#000000" font-family="sans-serif" font-size="11" lengthAdjust="spacingAndGlyphs" textLength="65" x="12" y="561.7886">operations:</text><line style="stroke: #383838; stroke-width: 1.0; stroke-dasharray: 1.0,2.0;" x1="7" x2="82" y1="568.3828" y2="568.3828"/><text fill="#000000" font-family="sans-serif" font-size="11" lengthAdjust="spacingAndGlyphs" textLength="55" x="12" y="582.5933">print(PDF)</text><text fill="#000000" font-family="sans-serif" font-size="11" lengthAdjust="spacingAndGlyphs" textLength="0" x="16" y="595.3979"/><rect fill="#F8F8F8" height="200.0156" id="Spooler" style="stroke: #383838; stroke-width: 1.5;" width="103" x="118" y="446"/><text fill="#000000" font-family="sans-serif" font-size="12" lengthAdjust="spacingAndGlyphs" textLength="48" x="145.5" y="462.1387">Spooler</text><line style="stroke: #383838; stroke-width: 1.5;" x1="119" x2="220" y1="469.9688" y2="469.9688"/><text fill="#000000" font-family="sans-serif" font-size="11" lengthAdjust="spacingAndGlyphs" textLength="0" x="128" y="484.1792"/><text fill="#000000" font-family="sans-serif" font-size="11" lengthAdjust="spacingAndGlyphs" textLength="53" x="124" y="496.9839">provides:</text><line style="stroke: #383838; stroke-width: 1.0;" x1="119" x2="220" y1="503.5781" y2="503.5781"/><text fill="#000000" font-family="sans-serif" font-size="11" lengthAdjust="spacingAndGlyphs" textLength="65" x="124" y="517.7886">operations:</text><line style="stroke: #383838; stroke-width: 1.0; stroke-dasharray: 1.0,2.0;" x1="119" x2="220" y1="524.3828" y2="524.3828"/><text fill="#000000" font-family="sans-serif" font-size="11" lengthAdjust="spacingAndGlyphs" textLength="91" x="124" y="538.5933">scheduleJob(PS)</text><text fill="#000000" font-family="sans-serif" font-size="11" lengthAdjust="spacingAndGlyphs" textLength="0" x="128" y="551.3979"/><line style="stroke: #383838; stroke-width: 1.0;" x1="119" x2="220" y1="557.9922" y2="557.9922"/><line style="stroke: #383838; stroke-width: 1.0;" x1="119" x2="220" y1="559.9922" y2="559.9922"/><text fill="#000000" font-family="sans-serif" font-size="11" lengthAdjust="spacingAndGlyphs" textLength="0" x="128" y="572.2026"/><text fill="#000000" font-family="sans-serif" font-size="11" lengthAdjust="spacingAndGlyphs" textLength="52" x="124" y="585.0073">requires:</text><line style="stroke: #383838; stroke-width: 1.0;" x1="119" x2="220" y1="591.6016" y2="591.6016"/><text fill="#000000" font-family="sans-serif" font-size="11" lengthAdjust="spacingAndGlyphs" textLength="65" x="124" y="605.812">operations:</text><line style="stroke: #383838; stroke-width: 1.0; stroke-dasharray: 1.0,2.0;" x1="119" x2="220" y1="612.4063" y2="612.4063"/><text fill="#000000" font-family="sans-serif" font-size="11" lengthAdjust="spacingAndGlyphs" textLength="48" x="124" y="626.6167">post(PS)</text><text fill="#000000" font-family="sans-serif" font-size="11" lengthAdjust="spacingAndGlyphs" textLength="0" x="128" y="639.4214"/><rect fill="#F8F8F8" height="137.6016" id="Queue" style="stroke: #383838; stroke-width: 1.5;" width="77" x="195" y="786"/><text fill="#000000" font-family="sans-serif" font-size="12" lengthAdjust="spacingAndGlyphs" textLength="41" x="213" y="802.1387">Queue</text><line style="stroke: #383838; stroke-width: 1.5;" x1="196" x2="271" y1="809.9688" y2="809.9688"/><text fill="#000000" font-family="sans-serif" font-size="11" lengthAdjust="spacingAndGlyphs" textLength="0" x="205" y="824.1792"/><text fill="#000000" font-family="sans-serif" font-size="11" lengthAdjust="spacingAndGlyphs" textLength="53" x="201" y="836.9839">provides:</text><line style="stroke: #383838; stroke-width: 1.0;" x1="196" x2="271" y1="843.5781" y2="843.5781"/><text fill="#000000" font-family="sans-serif" font-size="11" lengthAdjust="spacingAndGlyphs" textLength="65" x="201" y="857.7886">operations:</text><line style="stroke: #383838; stroke-width: 1.0; stroke-dasharray: 1.0,2.0;" x1="196" x2="271" y1="864.3828" y2="864.3828"/><text fill="#000000" font-family="sans-serif" font-size="11" lengthAdjust="spacingAndGlyphs" textLength="48" x="201" y="878.5933">post(PS)</text><text fill="#000000" font-family="sans-serif" font-size="11" lengthAdjust="spacingAndGlyphs" textLength="36" x="201" y="891.3979">get(id)</text><text fill="#000000" font-family="sans-serif" font-size="11" lengthAdjust="spacingAndGlyphs" textLength="53" x="201" y="904.2026">delete(id)</text><text fill="#000000" font-family="sans-serif" font-size="11" lengthAdjust="spacingAndGlyphs" textLength="0" x="205" y="917.0073"/><rect fill="#F8F8F8" height="360.0625" id="Printer" style="stroke: #383838; stroke-width: 1.5;" width="85" x="256" y="366"/><text fill="#000000" font-family="sans-serif" font-size="12" lengthAdjust="spacingAndGlyphs" textLength="42" x="277.5" y="382.1387">Printer</text><line style="stroke: #383838; stroke-width: 1.5;" x1="257" x2="340" y1="389.9688" y2="389.9688"/><text fill="#000000" font-family="sans-serif" font-size="11" lengthAdjust="spacingAndGlyphs" textLength="0" x="266" y="404.1792"/><text fill="#000000" font-family="sans-serif" font-size="11" lengthAdjust="spacingAndGlyphs" textLength="53" x="262" y="416.9839">provides:</text><line style="stroke: #383838; stroke-width: 1.0;" x1="257" x2="340" y1="423.5781" y2="423.5781"/><text fill="#000000" font-family="sans-serif" font-size="11" lengthAdjust="spacingAndGlyphs" textLength="65" x="262" y="437.7886">operations:</text><line style="stroke: #383838; stroke-width: 1.0; stroke-dasharray: 1.0,2.0;" x1="257" x2="340" y1="444.3828" y2="444.3828"/><text fill="#000000" font-family="sans-serif" font-size="11" lengthAdjust="spacingAndGlyphs" textLength="44" x="262" y="458.5933">print(id)</text><text fill="#000000" font-family="sans-serif" font-size="11" lengthAdjust="spacingAndGlyphs" textLength="0" x="266" y="471.3979"/><line style="stroke: #383838; stroke-width: 1.0;" x1="257" x2="340" y1="477.9922" y2="477.9922"/><text fill="#000000" font-family="sans-serif" font-size="11" lengthAdjust="spacingAndGlyphs" textLength="63" x="262" y="492.2026">properties:</text><line style="stroke: #383838; stroke-width: 1.0; stroke-dasharray: 1.0,2.0;" x1="257" x2="340" y1="498.7969" y2="498.7969"/><text fill="#000000" font-family="sans-serif" font-size="11" lengthAdjust="spacingAndGlyphs" textLength="61" x="262" y="513.0073">paper_size</text><text fill="#000000" font-family="sans-serif" font-size="11" lengthAdjust="spacingAndGlyphs" textLength="28" x="262" y="525.812">color</text><text fill="#000000" font-family="sans-serif" font-size="11" lengthAdjust="spacingAndGlyphs" textLength="37" x="262" y="538.6167">duplex</text><text fill="#000000" font-family="sans-serif" font-size="11" lengthAdjust="spacingAndGlyphs" textLength="0" x="266" y="551.4214"/><line style="stroke: #383838; stroke-width: 1.0;" x1="257" x2="340" y1="558.0156" y2="558.0156"/><text fill="#000000" font-family="sans-serif" font-size="11" lengthAdjust="spacingAndGlyphs" textLength="42" x="262" y="572.2261">events:</text><line style="stroke: #383838; stroke-width: 1.0; stroke-dasharray: 1.0,2.0;" x1="257" x2="340" y1="578.8203" y2="578.8203"/><text fill="#000000" font-family="sans-serif" font-size="11" lengthAdjust="spacingAndGlyphs" textLength="73" x="262" y="593.0308">print_started</text><text fill="#000000" font-family="sans-serif" font-size="11" lengthAdjust="spacingAndGlyphs" textLength="60" x="262" y="605.8354">print_done</text><text fill="#000000" font-family="sans-serif" font-size="11" lengthAdjust="spacingAndGlyphs" textLength="0" x="266" y="618.6401"/><line style="stroke: #383838; stroke-width: 1.0;" x1="257" x2="340" y1="625.2344" y2="625.2344"/><line style="stroke: #383838; stroke-width: 1.0;" x1="257" x2="340" y1="627.2344" y2="627.2344"/><text fill="#000000" font-family="sans-serif" font-size="11" lengthAdjust="spacingAndGlyphs" textLength="0" x="266" y="639.4448"/><text fill="#000000" font-family="sans-serif" font-size="11" lengthAdjust="spacingAndGlyphs" textLength="52" x="262" y="652.2495">requires:</text><line style="stroke: #383838; stroke-width: 1.0;" x1="257" x2="340" y1="658.8438" y2="658.8438"/><text fill="#000000" font-family="sans-serif" font-size="11" lengthAdjust="spacingAndGlyphs" textLength="65" x="262" y="673.0542">operations:</text><line style="stroke: #383838; stroke-width: 1.0; stroke-dasharray: 1.0,2.0;" x1="257" x2="340" y1="679.6484" y2="679.6484"/><text fill="#000000" font-family="sans-serif" font-size="11" lengthAdjust="spacingAndGlyphs" textLength="36" x="262" y="693.8589">get(id)</text><text fill="#000000" font-family="sans-serif" font-size="11" lengthAdjust="spacingAndGlyphs" textLength="53" x="262" y="706.6636">delete(id)</text><text fill="#000000" font-family="sans-serif" font-size="11" lengthAdjust="spacingAndGlyphs" textLength="0" x="266" y="719.4683"/><path d="M120,306.18 C113.39,326.27 106.74,346.63 100.5,366 C87.17,407.37 72.51,454.27 61.54,489.69 " fill="none" id="App-Driver" style="stroke: #383838; stroke-width: 1.0;"/><path d="M109.3986,361.4378 A10,10 0 0 0 95.9378 357.1014" fill="#FFFFFF" style="stroke: #383838; stroke-width: 1.5;"/><ellipse cx="100.5" cy="366" fill="#FFFFFF" rx="6" ry="6" style="stroke: #383838; stroke-width: 1.5;"/><path d="M169.5,306.24 C169.5,352.95 169.5,403.38 169.5,445.81 " fill="none" id="App-Spooler" style="stroke: #383838; stroke-width: 1.0;"/><path d="M176.5711,370.5589 A10,10 0 0 0 162.4289 370.5589" fill="#FFFFFF" style="stroke: #383838; stroke-width: 1.5;"/><ellipse cx="169.5" cy="377.63" fill="#FFFFFF" rx="6" ry="6" style="stroke: #383838; stroke-width: 1.5;"/><path d="M218.91,306.24 C231.11,342.82 244.06,381.68 255.9,417.19 " fill="none" id="App-Printer" style="stroke: #383838; stroke-width: 1.0;"/><path d="M242.012,353.1719 A10,10 0 0 0 228.5956 357.6443" fill="#FFFFFF" style="stroke: #383838; stroke-width: 1.5;"/><ellipse cx="237.54" cy="362.1163" fill="#FFFFFF" rx="6" ry="6" style="stroke: #383838; stroke-width: 1.5;"/><path d="M260.6,726.03 C256.11,747.21 251.77,767.72 247.92,785.9 " fill="none" id="Printer-Queue" style="stroke: #383838; stroke-width: 1.0;"/><path d="M262.4025,751.6371 A10,10 0 0 0 248.5671 748.7075" fill="#FFFFFF" style="stroke: #383838; stroke-width: 1.5;"/><ellipse cx="254.02" cy="757.09" fill="#FFFFFF" rx="6" ry="6" style="stroke: #383838; stroke-width: 1.5;"/><path d="M190.19,646.25 C199.69,691.8 210.71,744.66 219.25,785.66 " fill="none" id="Spooler-Queue" style="stroke: #383838; stroke-width: 1.0;"/><path d="M210.5593,709.296 A10,10 0 0 0 196.7147 712.182" fill="#FFFFFF" style="stroke: #383838; stroke-width: 1.5;"/><ellipse cx="205.08" cy="717.6613" fill="#FFFFFF" rx="6" ry="6" style="stroke: #383838; stroke-width: 1.5;"/></g></svg>