<?xml version="1.0" encoding="UTF-8" standalone="no"?><svg xmlns="http://www.w3.org/2000/svg" xmlns:xlink="http://www.w3.org/1999/xlink" contentScriptType="application/ecmascript" contentStyleType="text/css" height="653px" preserveAspectRatio="none" style="width:729px;height:653px;" version="1.1" viewBox="0 0 729 653" width="729px" zoomAndPan="magnify"><defs/><g><polygon fill="#FFFFFF" points="116,34,126,24,320,24,320,239,310,249,116,249,116,34" style="stroke: #000000; stroke-width: 1.5;"/><line style="stroke: #000000; stroke-width: 1.5;" x1="310" x2="319" y1="34" y2="25"/><line style="stroke: #000000; stroke-width: 1.5;" x1="116" x2="310" y1="34" y2="34"/><line style="stroke: #000000; stroke-width: 1.5;" x1="310" x2="310" y1="34" y2="249"/><text fill="#000000" font-family="Courier" font-size="14" font-weight="bold" lengthAdjust="spacingAndGlyphs" textLength="64" x="182" y="49.9951">Frontend</text><path d="M344,157 C344,147 509.5,147 509.5,147 C509.5,147 675,147 675,157 L675,239 C675,249 509.5,249 509.5,249 C509.5,249 344,249 344,239 L344,157 " fill="#FFFFFF" style="stroke: #000000; stroke-width: 1.5;"/><path d="M344,157 C344,167 509.5,167 509.5,167 C509.5,167 675,167 675,157 " fill="none" style="stroke: #000000; stroke-width: 1.5;"/><text fill="#000000" font-family="Courier" font-size="14" font-weight="bold" lengthAdjust="spacingAndGlyphs" textLength="64" x="477.5" y="181.9951">Database</text><path d="M39.9147,310.1281 C47.5212,297.2867 58.4851,297.6789 66.3932,309.8083 C74.3276,295.3935 84.7364,293.5146 95.6435,306.6524 C102.995,291.8812 115.9671,288.5858 127.2198,302.333 C135.4881,292.0034 144.0436,289.9653 152.0686,302.5963 C161.0424,290.3929 175.3337,286.868 182.9114,304.061 C189.4101,291.5593 199.937,288.2783 209.4381,300.8896 C215.6585,287.9213 230.1394,285.1888 239.2858,297.4246 C249.2072,284.6183 260.4883,283.3013 269.4473,298.4624 C279.1738,286.5752 290.1916,287.0613 296.28,302.0893 C303.8501,287.0076 318.4301,288.8434 326.9954,300.9657 C337.8837,289.0932 349.8733,287.6779 356.6883,305.0951 C363.8477,293.0734 377.3525,291.5685 384.3267,305.2939 C395.006,290.0528 406.059,293.0669 413.7348,308.2017 C426.5527,293.3554 437.1921,295.2023 445,313 C448.0646,311.3114 449.9094,312.5817 450.3418,315.8415 C464.6104,323.1536 464.9406,335.9355 450.4369,343.3472 C468.542,351.9867 467.0075,367.1018 451.5029,376.8119 C467.8241,383.1353 468.3984,396.1559 455.7705,406.6234 C472.4087,416.4688 471.603,426.4839 456.1949,436.7803 C472.1024,442.5495 474.8637,455.1512 461.6349,466.2914 C476.208,475.3061 475.456,488.2617 459.8676,495.4482 C470.1234,506.6125 469.269,517.7554 453.677,523.1416 C464.8547,531.3479 465.5973,545.2261 451.9958,551.9884 C466.2201,562.2787 468.0897,575.4542 450.9135,584.7059 C461.479,599.2384 455.4679,613.0355 438,616 C438.3823,615.9859 438.5881,616.1523 438.4203,616.5549 C432.5212,631.2634 423.0399,630.1127 413.5617,620.163 C404.5563,636.8376 392.6509,635.8514 381.3622,622.6217 C372.9428,633.6636 362.0129,636.3798 353.9886,622.1931 C346.8265,634.7971 333.1136,637.4913 325.4081,622.7614 C317.9386,634.892 307.3706,636.6221 299.0137,623.6962 C288.9452,637.1652 278.7085,635.5668 269.5951,622.632 C260.8196,637.4614 251.4965,637.5026 239.58,626.2461 C230.4749,638.5303 218.5632,641.2168 209.289,626.4354 C201.3891,636.7554 190.7006,634.8807 184.8071,624.1068 C174.4508,638.1291 162.9732,636.6819 152.8949,623.7774 C144.2929,636.143 134.3595,634.7893 126.063,623.4319 C115.8686,636.7279 104.1571,633.4103 99.0464,618.5535 C91.5123,634.8944 77.9083,633.9859 67.2945,622.0063 C49.019,633.6772 35.6907,633.4147 30,609 C34.3587,607.8072 36.0959,609.9808 35.1661,614.122 C21.8509,605.1004 22.4414,593.5644 34.4167,583.9154 C18.2982,578.0367 18.6565,563.4231 31.3621,554.5465 C14.9634,547.1617 11.6876,531.0165 27.9202,520.3476 C16.0848,511.4987 15.7409,498.9329 30.5201,492.5756 C17.0516,484.4643 15.5975,470.0753 30.5786,462.0185 C16.8977,454.2802 15.4026,440.164 30.1357,432.0063 C15.4063,424.0508 16.464,409.7214 30.4204,402.0384 C18.5376,394.1673 16.1986,379.624 31.9459,373.2152 C19.5785,365.3448 19.1547,355.3357 31.9464,347.4658 C13.5645,334.6321 13.7835,313.764 37,306 C40.0335,305.6108 41.2807,307.411 39.9147,310.1281 " fill="#FFFFFF" style="stroke: #000000; stroke-width: 1.5;"/><text fill="#000000" font-family="Courier" font-size="14" font-weight="bold" lengthAdjust="spacingAndGlyphs" textLength="168" x="153.5" y="323.9951">URLs Management Cloud</text><rect fill="#FFFFFF" height="184" style="stroke: #000000; stroke-width: 1.5;" width="267" x="162" y="416"/><rect fill="#FFFFFF" height="10" style="stroke: #000000; stroke-width: 1.5;" width="15" x="409" y="421"/><rect fill="#FFFFFF" height="2" style="stroke: #000000; stroke-width: 1.5;" width="4" x="407" y="423"/><rect fill="#FFFFFF" height="2" style="stroke: #000000; stroke-width: 1.5;" width="4" x="407" y="427"/><text fill="#000000" font-family="Courier" font-size="14" font-weight="bold" lengthAdjust="spacingAndGlyphs" textLength="88" x="251.5" y="441.9951">API Manager</text><path d="M493.8687,307.9269 C502.5309,296.0969 511.2039,296.8841 520.3864,307.307 C526.9174,294.122 534.859,292.8638 546.188,301.6803 C552.9298,291.4119 563.7663,289.7129 569.5874,302.6103 C575.698,290.0939 583.1426,290.4817 592.9035,298.4567 C600.5252,286.8231 611.0151,285.77 618.0391,299.0595 C626.7542,290.4887 638.6152,293.4938 642.2762,305.1236 C651.5767,291.7941 663.0781,295.3231 670.2787,307.4349 C680.1116,295.0685 693.3373,299.6124 698,313 C699.3057,312.4004 700.0748,312.8454 699.988,314.3289 C711.5724,320.8594 711.165,329.998 701.1395,337.5979 C712.0045,342.9535 709.9941,351.2396 702.275,357.6478 C710.3919,363.3842 712.5416,370.2585 702.8111,376.5024 C713.1979,384.2961 712.1086,391.9096 701.6422,398.6003 C712.4948,403.6185 713.9223,412.3565 705.3654,420.6517 C716.4465,427.0162 716.2036,434.2125 705.8549,441.0902 C717.6913,448.6616 715.1474,456.7343 705.6028,464.0712 C714.9201,470.5077 713.034,479.1265 703.6631,483.7179 C715.0207,488.4408 713.6352,497.6291 705.7175,504.2781 C715.9555,512.8669 713.7935,522.6949 702.4249,528.3252 C711.5398,532.6305 711.1997,539.9772 704.0625,545.805 C713.1717,553.5804 715.1087,563.1469 701.9638,568.9001 C710.3645,575.8217 710.179,582.1407 701.6511,588.7963 C709.3087,602.23 705.9379,611.4133 691,616 C692.5,616.3829 692.9144,617.2482 692.2561,618.653 C686.2782,629.6744 678.4351,630.1823 670.1344,621.2248 C663.1499,634.6954 650.2691,634.8689 642.3345,622.2366 C635.9822,633.8447 625.7663,633.6221 619.2739,622.3779 C613.9838,637.7017 602.9086,640.5112 592.3363,627.378 C584.4098,638.4848 573.6473,638.0951 568.6994,624.525 C557.8569,636.854 549.7734,633.3965 543.2193,620.2378 C535.3437,631.0094 526.938,630.2434 519.1867,620.095 C502.9252,631.7851 491.3957,629.8112 486,609 C488.0254,609.4217 488.3145,610.3902 487.2649,612.0762 C476.579,606.5657 478.9694,596.3626 487.559,591.1227 C476.8423,585.7746 472.0875,575.982 483.7527,567.0893 C474.286,561.0956 473.2021,551.6653 483.9091,545.8201 C471.7022,541.6442 471.7871,534.1594 479.0351,525.3509 C468.0264,520.369 469.2733,512.0051 477.2806,505.3546 C467.5956,498.4296 468.5625,491.793 476.8763,484.5188 C468.0602,477.5725 465.5181,469.0461 477.4124,462.6066 C468.4713,457.2195 468.0687,449.2198 477.4548,443.8742 C468.396,435.6811 466.6989,425.1911 480.6313,420.0654 C472.054,413.5638 469.9067,407.7755 480.043,400.7053 C470.5594,393.5359 468.5076,384.9182 480.678,378.3643 C473.8585,371.1143 476.7628,362.202 485.8164,359.2103 C472.9878,353.2263 472.5335,343.5373 484.5293,336.1668 C473.0963,322.2319 474.5163,311.5344 493,306 C494.2598,306.1602 494.3967,306.9608 493.8687,307.9269 " fill="#FFFFFF" style="stroke: #000000; stroke-width: 1.5;"/><text fill="#000000" font-family="Courier" font-size="14" font-weight="bold" lengthAdjust="spacingAndGlyphs" textLength="192" x="496" y="323.9951">Courses Management Cloud</text><rect fill="#FFFFFF" height="184" style="stroke: #000000; stroke-width: 1.5;" width="180" x="502" y="416"/><rect fill="#FFFFFF" height="10" style="stroke: #000000; stroke-width: 1.5;" width="15" x="662" y="421"/><rect fill="#FFFFFF" height="2" style="stroke: #000000; stroke-width: 1.5;" width="4" x="660" y="423"/><rect fill="#FFFFFF" height="2" style="stroke: #000000; stroke-width: 1.5;" width="4" x="660" y="427"/><text fill="#000000" font-family="Courier" font-size="14" font-weight="bold" lengthAdjust="spacingAndGlyphs" textLength="136" x="524" y="441.9951">Courses Extractor</text><rect fill="#F8F8F8" height="36.2969" style="stroke: #383838; stroke-width: 1.5;" width="140" x="164" y="197"/><rect fill="#F8F8F8" height="5" style="stroke: #383838; stroke-width: 1.5;" width="10" x="159" y="202"/><rect fill="#F8F8F8" height="5" style="stroke: #383838; stroke-width: 1.5;" width="10" x="159" y="223.2969"/><text fill="#000000" font-family="Courier" font-size="14" lengthAdjust="spacingAndGlyphs" textLength="120" x="174" y="219.9951">Web Application</text><rect fill="#F8F8F8" height="36.2969" style="stroke: #383838; stroke-width: 1.5;" width="172" x="132" y="64"/><rect fill="#F8F8F8" height="5" style="stroke: #383838; stroke-width: 1.5;" width="10" x="127" y="69"/><rect fill="#F8F8F8" height="5" style="stroke: #383838; stroke-width: 1.5;" width="10" x="127" y="90.2969"/><text fill="#000000" font-family="Courier" font-size="14" lengthAdjust="spacingAndGlyphs" textLength="152" x="142" y="86.9951">Notification System</text><rect fill="#F8F8F8" height="36.2969" style="stroke: #383838; stroke-width: 1.5;" width="132" x="360" y="197"/><rect fill="#F8F8F8" height="5" style="stroke: #383838; stroke-width: 1.5;" width="10" x="355" y="202"/><rect fill="#F8F8F8" height="5" style="stroke: #383838; stroke-width: 1.5;" width="10" x="355" y="223.2969"/><text fill="#000000" font-family="Courier" font-size="14" lengthAdjust="spacingAndGlyphs" textLength="112" x="370" y="219.9951">Shortened URLs</text><rect fill="#F8F8F8" height="36.2969" style="stroke: #383838; stroke-width: 1.5;" width="132" x="527" y="197"/><rect fill="#F8F8F8" height="5" style="stroke: #383838; stroke-width: 1.5;" width="10" x="522" y="202"/><rect fill="#F8F8F8" height="5" style="stroke: #383838; stroke-width: 1.5;" width="10" x="522" y="223.2969"/><text fill="#000000" font-family="Courier" font-size="14" lengthAdjust="spacingAndGlyphs" textLength="112" x="537" y="219.9951">Users' Courses</text><rect fill="#F8F8F8" height="36.2969" style="stroke: #383838; stroke-width: 1.5;" width="124" x="172" y="333"/><rect fill="#F8F8F8" height="5" style="stroke: #383838; stroke-width: 1.5;" width="10" x="167" y="338"/><rect fill="#F8F8F8" height="5" style="stroke: #383838; stroke-width: 1.5;" width="10" x="167" y="359.2969"/><text fill="#000000" font-family="Courier" font-size="14" lengthAdjust="spacingAndGlyphs" textLength="104" x="182" y="355.9951">URL Middleman</text><rect fill="#F8F8F8" height="36.2969" style="stroke: #383838; stroke-width: 1.5;" width="108" x="38" y="451"/><rect fill="#F8F8F8" height="5" style="stroke: #383838; stroke-width: 1.5;" width="10" x="33" y="456"/><rect fill="#F8F8F8" height="5" style="stroke: #383838; stroke-width: 1.5;" width="10" x="33" y="477.2969"/><text fill="#000000" font-family="Courier" font-size="14" lengthAdjust="spacingAndGlyphs" textLength="88" x="48" y="473.9951">golang-ical</text><rect fill="#F8F8F8" height="36.2969" style="stroke: #383838; stroke-width: 1.5;" width="108" x="181" y="451"/><rect fill="#F8F8F8" height="5" style="stroke: #383838; stroke-width: 1.5;" width="10" x="176" y="456"/><rect fill="#F8F8F8" height="5" style="stroke: #383838; stroke-width: 1.5;" width="10" x="176" y="477.2969"/><text fill="#000000" font-family="Courier" font-size="14" lengthAdjust="spacingAndGlyphs" textLength="88" x="191" y="473.9951">API Manager</text><rect fill="#F8F8F8" height="36.2969" style="stroke: #383838; stroke-width: 1.5;" width="100" x="178" y="548"/><rect fill="#F8F8F8" height="5" style="stroke: #383838; stroke-width: 1.5;" width="10" x="173" y="553"/><rect fill="#F8F8F8" height="5" style="stroke: #383838; stroke-width: 1.5;" width="10" x="173" y="574.2969"/><text fill="#000000" font-family="Courier" font-size="14" lengthAdjust="spacingAndGlyphs" textLength="80" x="188" y="570.9951">iCorsi API</text><rect fill="#F8F8F8" height="36.2969" style="stroke: #383838; stroke-width: 1.5;" width="100" x="313" y="548"/><rect fill="#F8F8F8" height="5" style="stroke: #383838; stroke-width: 1.5;" width="10" x="308" y="553"/><rect fill="#F8F8F8" height="5" style="stroke: #383838; stroke-width: 1.5;" width="10" x="308" y="574.2969"/><text fill="#000000" font-family="Courier" font-size="14" lengthAdjust="spacingAndGlyphs" textLength="80" x="323" y="570.9951">Github API</text><rect fill="#F8F8F8" height="36.2969" style="stroke: #383838; stroke-width: 1.5;" width="156" x="514" y="333"/><rect fill="#F8F8F8" height="5" style="stroke: #383838; stroke-width: 1.5;" width="10" x="509" y="338"/><rect fill="#F8F8F8" height="5" style="stroke: #383838; stroke-width: 1.5;" width="10" x="509" y="359.2969"/><text fill="#000000" font-family="Courier" font-size="14" lengthAdjust="spacingAndGlyphs" textLength="136" x="524" y="355.9951">Courses Middleman</text><rect fill="#F8F8F8" height="36.2969" style="stroke: #383838; stroke-width: 1.5;" width="92" x="546" y="451"/><rect fill="#F8F8F8" height="5" style="stroke: #383838; stroke-width: 1.5;" width="10" x="541" y="456"/><rect fill="#F8F8F8" height="5" style="stroke: #383838; stroke-width: 1.5;" width="10" x="541" y="477.2969"/><text fill="#000000" font-family="Courier" font-size="14" lengthAdjust="spacingAndGlyphs" textLength="72" x="556" y="473.9951">Extractor</text><rect fill="#F8F8F8" height="36.2969" style="stroke: #383838; stroke-width: 1.5;" width="148" x="518" y="548"/><rect fill="#F8F8F8" height="5" style="stroke: #383838; stroke-width: 1.5;" width="10" x="513" y="553"/><rect fill="#F8F8F8" height="5" style="stroke: #383838; stroke-width: 1.5;" width="10" x="513" y="574.2969"/><text fill="#000000" font-family="Courier" font-size="14" lengthAdjust="spacingAndGlyphs" textLength="128" x="528" y="570.9951">Links Repository</text><path d="M220.09,100.13 C223.16,125.23 228.84,171.76 231.91,196.87 " fill="none" id="NS-WAPP" style="stroke: #383838; stroke-width: 1.0;"/><path d="M233.72,487.42 C232.45,504.57 230.54,530.58 229.28,547.69 " fill="none" id="API-ICAPI" style="stroke: #383838; stroke-width: 1.0;"/><path d="M258.18,487.2 C281.38,504.42 316.86,530.75 339.99,547.92 " fill="none" id="API-GHAPI" style="stroke: #383838; stroke-width: 1.0;"/><path d="M234.15,369.12 C234.34,391.05 234.66,428.85 234.85,450.81 " fill="none" id="URL-API" style="stroke: #383838; stroke-width: 1.0;"/><path d="M211.41,369.13 C197.11,380.08 178.31,394.68 162,408 C144.64,422.17 125.34,438.79 111.4,450.94 " fill="none" id="URL-ICAL" style="stroke: #383838; stroke-width: 1.0;"/><path d="M416.88,233.03 C408.4,247.57 394.59,268.27 378,282 C350.74,304.57 314.74,321.57 285.56,332.93 " fill="none" id="URLS-URL" style="stroke: #383838; stroke-width: 1.0;"/><path d="M592,487.42 C592,504.57 592,530.58 592,547.69 " fill="none" id="EXT-REPO" style="stroke: #383838; stroke-width: 1.0;"/><path d="M592,369.12 C592,391.05 592,428.85 592,450.81 " fill="none" id="CMM-EXT" style="stroke: #383838; stroke-width: 1.0;"/><path d="M592.87,233.24 C592.68,258.97 592.32,307.13 592.13,332.82 " fill="none" id="COURSES-CMM" style="stroke: #383838; stroke-width: 1.0;"/><path d="M234,233.24 C234,258.97 234,307.13 234,332.82 " fill="none" id="WAPP-URL" style="stroke: #383838; stroke-width: 1.0;"/><text fill="#000000" font-family="Courier" font-size="13" lengthAdjust="spacingAndGlyphs" textLength="40" x="235" y="278.0669">HTTPS</text><path d="M277.93,233.09 C297.98,240.71 322.08,249.61 344,257 C391.96,273.18 405.47,272.61 453,290 C488.42,302.96 527.81,320.24 555.58,332.93 " fill="none" id="WAPP-CMM" style="stroke: #383838; stroke-width: 1.0;"/><text fill="#000000" font-family="Courier" font-size="13" lengthAdjust="spacingAndGlyphs" textLength="40" x="429" y="278.0669">HTTPS</text></g></svg>