<?xml version="1.0" encoding="UTF-8" standalone="no"?><svg xmlns="http://www.w3.org/2000/svg" xmlns:xlink="http://www.w3.org/1999/xlink" contentScriptType="application/ecmascript" contentStyleType="text/css" height="614px" preserveAspectRatio="none" style="width:751px;height:614px;" version="1.1" viewBox="0 0 751 614" width="751px" zoomAndPan="magnify"><defs/><g><rect fill="#FFFFFF" height="447" style="stroke: #444444; stroke-width: 1.0; stroke-dasharray: 7.0,7.0;" width="194" x="22" y="156"/><text fill="#000000" font-family="sans-serif" font-size="14" font-style="italic" lengthAdjust="spacingAndGlyphs" textLength="84" x="77" y="170.9951">«boundary»</text><text fill="#444444" font-family="sans-serif" font-size="16" font-weight="bold" lengthAdjust="spacingAndGlyphs" textLength="112" x="63" y="189.1484">USI Calendar</text><text fill="#444444" font-family="sans-serif" font-size="12" font-weight="bold" lengthAdjust="spacingAndGlyphs" textLength="62" x="88" y="204.0605">[System]</text><rect fill="#438DD5" height="66.5625" style="stroke: #3C7FC0; stroke-width: 1.5;" width="162" x="38" y="223"/><text fill="#FFFFFF" font-family="sans-serif" font-size="12" font-style="italic" lengthAdjust="spacingAndGlyphs" textLength="74" x="82" y="244.1387">«container»</text><text fill="#FFFFFF" font-family="sans-serif" font-size="16" font-weight="bold" lengthAdjust="spacingAndGlyphs" textLength="142" x="48" y="261.8203">Web Application</text><text fill="#FFFFFF" font-family="sans-serif" font-size="12" font-style="italic" lengthAdjust="spacingAndGlyphs" textLength="47" x="95.5" y="276.7324">[Vue.js]</text><rect fill="#438DD5" height="66.5625" style="stroke: #3C7FC0; stroke-width: 1.5;" width="96" x="104" y="367"/><text fill="#FFFFFF" font-family="sans-serif" font-size="12" font-style="italic" lengthAdjust="spacingAndGlyphs" textLength="74" x="115" y="388.1387">«container»</text><text fill="#FFFFFF" font-family="sans-serif" font-size="16" font-weight="bold" lengthAdjust="spacingAndGlyphs" textLength="76" x="114" y="405.8203">Backend</text><text fill="#FFFFFF" font-family="sans-serif" font-size="12" font-style="italic" lengthAdjust="spacingAndGlyphs" textLength="54" x="125" y="420.7324">[Golang]</text><path d="M48.5,521 C48.5,511 100,511 100,511 C100,511 151.5,511 151.5,521 L151.5,576.5625 C151.5,586.5625 100,586.5625 100,586.5625 C100,586.5625 48.5,586.5625 48.5,576.5625 L48.5,521 " fill="#438DD5" style="stroke: #3C7FC0; stroke-width: 1.5;"/><path d="M48.5,521 C48.5,531 100,531 100,531 C100,531 151.5,531 151.5,521 " fill="none" style="stroke: #3C7FC0; stroke-width: 1.5;"/><text fill="#FFFFFF" font-family="sans-serif" font-size="12" font-style="italic" lengthAdjust="spacingAndGlyphs" textLength="74" x="63" y="546.1387">«container»</text><text fill="#FFFFFF" font-family="sans-serif" font-size="16" font-weight="bold" lengthAdjust="spacingAndGlyphs" textLength="83" x="58.5" y="563.8203">Database</text><text fill="#FFFFFF" font-family="sans-serif" font-size="12" font-style="italic" lengthAdjust="spacingAndGlyphs" textLength="69" x="65.5" y="578.7324">[MongoDB]</text><rect fill="#08427B" height="85.1875" style="stroke: #073B6F; stroke-width: 1.5;" width="77" x="80.5" y="8"/><text fill="#FFFFFF" font-family="sans-serif" font-size="12" font-style="italic" lengthAdjust="spacingAndGlyphs" textLength="57" x="90.5" y="29.1387">«person»</text><text fill="#FFFFFF" font-family="sans-serif" font-size="16" font-weight="bold" lengthAdjust="spacingAndGlyphs" textLength="41" x="98.5" y="46.8203">User</text><text fill="#FFFFFF" font-family="sans-serif" font-size="14" lengthAdjust="spacingAndGlyphs" textLength="0" x="121" y="63.5889"/><text fill="#FFFFFF" font-family="sans-serif" font-size="14" lengthAdjust="spacingAndGlyphs" textLength="0" x="121" y="79.8857"/><rect fill="#999999" height="52.5938" style="stroke: #8A8A8A; stroke-width: 1.5;" width="168" x="232" y="522.5"/><text fill="#FFFFFF" font-family="sans-serif" font-size="12" font-style="italic" lengthAdjust="spacingAndGlyphs" textLength="115" x="258.5" y="543.6387">«external_system»</text><text fill="#FFFFFF" font-family="sans-serif" font-size="16" font-weight="bold" lengthAdjust="spacingAndGlyphs" textLength="148" x="242" y="561.3203">Calendar Service</text><rect fill="#999999" height="52.5938" style="stroke: #8A8A8A; stroke-width: 1.5;" width="135" x="435.5" y="522.5"/><text fill="#FFFFFF" font-family="sans-serif" font-size="12" font-style="italic" lengthAdjust="spacingAndGlyphs" textLength="115" x="445.5" y="543.6387">«external_system»</text><text fill="#FFFFFF" font-family="sans-serif" font-size="16" font-weight="bold" lengthAdjust="spacingAndGlyphs" textLength="85" x="460.5" y="561.3203">iCorsi API</text><rect fill="#999999" height="52.5938" style="stroke: #8A8A8A; stroke-width: 1.5;" width="135" x="605.5" y="522.5"/><text fill="#FFFFFF" font-family="sans-serif" font-size="12" font-style="italic" lengthAdjust="spacingAndGlyphs" textLength="115" x="615.5" y="543.6387">«external_system»</text><text fill="#FFFFFF" font-family="sans-serif" font-size="16" font-weight="bold" lengthAdjust="spacingAndGlyphs" textLength="94" x="626" y="561.3203">Github API</text><path d="M119,93.27 C119,129.83 119,182.46 119,217.76 " fill="none" id="user_s-&gt;frontend" style="stroke: #666666; stroke-width: 1.0;"/><polygon fill="#666666" points="119,222.84,123,213.84,119,217.84,115,213.84,119,222.84" style="stroke: #666666; stroke-width: 1.0;"/><text fill="#666666" font-family="sans-serif" font-size="13" font-weight="bold" lengthAdjust="spacingAndGlyphs" textLength="140" x="120" y="136.0669">Request Calendars</text><path d="M126.57,290.08 C131.52,311.39 138.01,339.32 143.2,361.62 " fill="none" id="frontend-&gt;backend" style="stroke: #666666; stroke-width: 1.0;"/><polygon fill="#666666" points="144.35,366.58,146.2155,356.9094,143.2215,361.709,138.422,358.715,144.35,366.58" style="stroke: #666666; stroke-width: 1.0;"/><text fill="#666666" font-family="sans-serif" font-size="13" font-weight="bold" lengthAdjust="spacingAndGlyphs" textLength="37" x="138" y="333.0669">HTTP</text><path d="M140.46,434.01 C132.92,455.26 122.99,483.22 114.86,506.12 " fill="none" id="backend-&gt;database" style="stroke: #666666; stroke-width: 1.0;"/><polygon fill="#666666" points="113.16,510.93,119.9375,503.784,114.8308,506.2174,112.3974,501.1107,113.16,510.93" style="stroke: #666666; stroke-width: 1.0;"/><text fill="#666666" font-family="sans-serif" font-size="13" font-weight="bold" lengthAdjust="spacingAndGlyphs" textLength="98" x="131" y="477.0669">Reads/Writes</text><path d="M200.14,433.97 C212.84,443.2 226.26,453.59 238,464 C256.81,480.68 276.04,501.34 290.7,518 " fill="none" id="backend-&gt;calendar" style="stroke: #666666; stroke-width: 1.0;"/><polygon fill="#666666" points="294.33,522.15,291.3961,512.7483,291.0304,518.3933,285.3854,518.0276,294.33,522.15" style="stroke: #666666; stroke-width: 1.0;"/><text fill="#666666" font-family="sans-serif" font-size="13" font-weight="bold" lengthAdjust="spacingAndGlyphs" textLength="0" x="260" y="477.0669"/><path d="M200.17,410.89 C281.34,427.3 450.04,464 588,511 C596.07,513.75 604.45,516.95 612.65,520.29 " fill="none" id="backend-&gt;github" style="stroke: #666666; stroke-width: 1.0;"/><polygon fill="#666666" points="617.73,522.39,610.9232,515.2719,613.1045,520.4913,607.8852,522.6727,617.73,522.39" style="stroke: #666666; stroke-width: 1.0;"/><text fill="#666666" font-family="sans-serif" font-size="13" font-weight="bold" lengthAdjust="spacingAndGlyphs" textLength="0" x="488" y="477.0669"/><path d="M200.44,421.27 C253.64,443.04 341.55,479.18 417,511 C424.19,514.03 431.71,517.23 439.19,520.42 " fill="none" id="backend-&gt;icorsi" style="stroke: #666666; stroke-width: 1.0;"/><polygon fill="#666666" points="443.83,522.41,437.1225,515.1982,439.2313,520.4473,433.9822,522.5561,443.83,522.41" style="stroke: #666666; stroke-width: 1.0;"/><text fill="#666666" font-family="sans-serif" font-size="13" font-weight="bold" lengthAdjust="spacingAndGlyphs" textLength="0" x="350" y="477.0669"/></g></svg>